<?xml version="1.0"?><svg baseprofile="tiny" fill="#ececec" height="1003" stroke="black" stroke-linecap="round" stroke-linejoin="round" stroke-width=".1" version="1.2" viewbox="0 0 1000 1003" width="1000" xmlns="http://www.w3.org/2000/svg">
 <g id="combined">
  <path d="M751.9 816.2l8.6-20 2.2-4.4 8.2-7.8-0.4-2.7 2.1 0 1.7-4.9 0.1-11.9-0.3-12.7 0.1-3.5 0-2.2-0.5-6.1 0-1-1.1 0-1.2-7.1 0-4.2 2.1-0.1-0.1-4.1-0.1-8.3-0.1-8.2-0.1-2.1 0-2-0.1-4.2 0-12.7 0-0.2 0-3.6 0.4 0 8-0.1 1.4 0 0 1 3.8-0.2 1-0.9 2.1 0 2-0.1 1.1 1 1-1 4.1-0.1 8.2-0.1 2.1-0.1 4.1 0 2-0.1 0 1 1.1 0 1 0 2-1.1 0 1.1 4.1-0.1 0-1 2.1-0.1 2.1 0 1 0 2-0.1 0.1 0 1 1.1 6.1-0.2 0-1 10.6 4.2 0.8 0.7 1 2.5 0.2 8.9 0.3 16.5 0.2 8.3 2.7 0.7 0.3 3.1 0.7 2.4 2.6 3.3 12.3-7.3 0.1 0.3 7.8 20.9-0.1 1.3-0.9 12.2-6.4 4.9 4.1 7.2-2.8 3 6.9 5.8-0.5 11.8 0 1 0 0-0.2 4.1 0 4.2-0.1 8.1 0 8.2-9.7 0 0 8.2-0.1 8-0.3 3.2-2.2 5.2-6.5 12.5-1.7 3.4-5.5 0.5-7.3-0.3-1.4 0-7.5-0.2-3.9 0.3-0.7 2.7-7 5.1-2.2 2.3-2.6 0.8-0.4 0.8-4.8 5.6-3.3 1.1 0.2-34.6-0.2-7.4-20.5-0.7-0.2-19.7-0.4-5.8-12.3-25.2-5.3 3.4-7.6 8.8-4.2 6.4-3.6 8.4-0.3 3.7-3.9 9.6-1.1-0.9 1.9-6.4z" id="60617" name="60617">
  </path>
  <path d="M773 682.2l0 3.6 0 0.2 0 12.7 0.1 4.2 0 2 0.1 2.1 0.1 8.2 0.1 8.3 0.1 4.1-2.1 0.1 0 4.2 1.2 7.1 1.1 0 0 1 0.5 6.1 0 2.2-0.1 3.5-2.5-3.5-8.5 0.2-3.2 0.1-2 1.1-2.1-1.1-2 0.1-2.1 1.1-0.9 0 0.1 6.4 1 0.1 0 0.2 0 0.3-9.6-0.1 1.3-7.8-2.1 0-8.2 0.2-8.2 0.2 0 1.1-4.1 0.1 0-1.1-2 0-2.1 1.2-2.7 0.1 0.2 11.2-3 0.2-0.9-1.6-0.7-2.5-0.6-2.5-0.3-5.8-0.3-12.5 0-4.1-0.2-2.5 0-5.8-0.2-8.2-0.2-12.5-0.1-4.1-0.1-4.2-0.3-12.4-0.1-8.2-0.2-4.2 0-4.1-0.1-3.9-0.1-4.3-0.1-8.3 8.1-0.2 4.2-0.1 1.3 0 2.7-1 0 0.9 4.1-0.1 4.1-0.1-0.1-3.7 3.9 3.6 0.2 0 4.2-0.1 0 0 1.6 0.1 5.6 0 12.7-0.4 2.3 0 2.5 0 0.9-0.1 5.6 0.2 0.1 1.9 0 2 1.3 0 0.1 4.2 0.1 2-1.1 0 0 2.1 1.1 2.1 0.1 2 0.6 0 0.1 0.9 1.9 0 0.1 3.2-2 0-0.6 0.1-0.1-2.1-3.7 0 0 2.1 2.7 0-0.5 8.2-0.8 1 2.8 2.7 0 0.4z" id="60619" name="60619">
  </path>
  <path d="M691.6 374.8l0.1 5.7 0.1 5.7 0.1 3 0.1 2.9 0.1 5.7-2.6 0.1 0.1 2.8 2.6 2.5-4.1 0.1-0.2-1.1-2.1-4.3-6.1 0.1-0.2-5.7 2.5-1.5 0-1.5-2.6-1.4 0-1.5 2.5 0-0.1-3-0.2-5.7-2.4 0-0.1-2.5 0-2.8 0-1.3 2.3 0.2 0.1-1.2 1-0.1 1.1 4.2 1.7 1.8 3.2-2.1 3.1 0.9z" id="60606" name="60606">
  </path>
  <path d="M692.1 397.8l-0.1-5.7 2.5 1.4 4.9-1.6 2.8 0 0 2.9 2.7-0.2 2.8-2.9 0.1 2.9 0 2.8-2.8 0.1-2.7 0.1-5.3 0.1-4 0.1-0.9 0z" id="60604" name="60604">
  </path>
  <path d="M691.8 386.2l-0.1-5.7 2.5 0 5 0 0.1 2.9 2.6 0-0.1-2.9 2.9 0 1.5 0 1.5 0 0 5.4-3 0 0.1 3-2.6 0.1-0.2-3-2.7 0.1-7.5 0.1z" id="60602" name="60602">
  </path>
  <path d="M692 392.1l-0.1-2.9-0.1-3 7.5-0.1 2.7-0.1 0.1 3 2.7-0.1-0.1-3 2.9 0 0.1 2.9 2.4-0.1 0.2 0 3.6 0 0.2 5.7-3.9 0.1-2.4 0.1-0.1-2.9-2.8 2.9-2.7 0.2 0-2.9-2.8 0-4.9 1.6-2.5-1.4z" id="60603" name="60603">
  </path>
  <path d="M691.6 374.8l-3.1-0.9-3.2 2.1-1.7-1.8-1.1-4.2-1 0.1-0.1 1.2-2.3-0.2 0 1.3-2.5 0-0.1-2.3-2.4 0-5.6 0 0-4.8 0-0.9 1.5 0 0-1.6-1.5 0.1-0.2-8.4 5.8 7.7 4 0-3.3-3.3-0.3-3.4-0.1-2.2 2.1-0.1 2.3 0 2.5-0.1 0.3 0 2.1 0 2.5-1 0 1 5-0.1 4-0.1 1 0 2.5-0.1-0.1-3 2.7 0 0 1.1 0.1 1.9 0 4.1 0.1 1.8 0 3.6 0.1 1.8 2.3 0-2.3 1.9 0 3.6 0.1 4-2.6 0-2.5 0-2.5 1-2.5 0.2z" id="60654" name="60654">
  </path>
  <path d="M613.5 122.7l0.7 0 1.2-1 1.8 0.9 1.9-0.1 2.8 0 0.3-0.1 0-1 4.6-0.1 0 1 1.7 0 1.1 0 2.5-0.1-0.1-2 1.1 0 0 2 1 0 4.3-0.1-0.1-0.9 2 0.9 2.1 0 0-0.9 2.1 0.8 2.1 0 2.1 0 1.2-0.1 0-1.2 0.2-0.3 0.3-0.1 1.3 0 0.5 0.2 0.3 0.3 0 1.1 2.5 0 0.5 4 0 0.1 0.6 4.2 0.1 0.7 0 0.3 0.2 1.7 0.2 1.3 0.1 1 0.2 1.1 0.2 1.9 0.3 1.9 0 0.1 0 0.1 0.3 2.7 0.1 0.2 0.5 1.8 1.6 5.2 1 3.5-3.9 0.9-1.3 0.1-1.2 0.3-1.2 0-1.2 0-4.6 0.1-2.2 0.1 0.1 4.1-1 0.1-0.1-4.2-2.7 0.1-2.4 0-1.2 0 0 2.2-3.8 0-1.1 0.1-0.3-2.2-2.9 0.1-4.1 0.1 0.1 1-2 0.1 0-1.1-1 0.1-0.1-1.9-0.1-5.4 0.1-0.2-0.1-9.3-0.6 0-5.7 0.2-1.1 0-0.9-2.8 0-2.7-0.5 0 0-2.7-2.3 0.1-0.2-5.3 0-3 2.1 0z" id="60660" name="60660">
  </path>
  <path d="M512.6 430.8l4.3 0-0.2-8.3 10.3-0.2 0.1 1.1 2 0 0-1.2 2.1 0 0 1.1 4.1-0.1 0-1.1 2.1 0 0 1 6.2-0.1 0-1.1 2.3 0 2.3 0 0 1.1 3.6 0 2.1-0.1 0 1.5 1.1-1.2 3-0.1 4.1 0 0-1.4 4.1-0.1 4.2-0.1 0 1.1 2.1 0 2.1 0 0-1.1 4-0.1 8.3-0.1 0.2 11.8 0.1 4.7 0.1 4.2 0.1 4.2 0.1 0.7-6.2 1.8 0 0.3 3-0.8 3.2 0 0 2.1 0.1 4.2 0.1 2-1 4.2 1.1 0 0 2 0 0.9-1.1 0 0.2 3.3 1.1 1.9 0 2-1 0.1-3.2 0-2.3 0.3-1.8 0.6 0.4 15.7 8.3-0.1 0.1 5.2-11.1 4.6-1.2-2.1-1.4 3.3 7 0.6 6.7-2.8 0 2.8-16.4 6.9 0-1.8 0-1-14.4 6.5-2 0.6 0 1.4 0 0.9-16.4 6.9-0.1-4.5-0.3-17.9-24.6 0.5-0.6-8.6 0.5-0.9-0.4-12-0.1-7-0.1-1.1-0.3-12.2-0.3-7-0.3-9.6-0.1-7.7 0-0.6z" id="60623" name="60623">
  </path>
  <path d="M606.9 586.1l1 0.1 2 0 5.9-0.1 3.5 0 2-0.1 2.1 0 4.1 0 4.1-0.1 4.1 0 4.1-0.1 4.1-0.1 2.1-0.1 2 0 4.2-0.1 4.1 0 2-0.1 2.1 0 0 0.5-4.1 0.1 0 1.5 1-0.1 0.1 6.3 0.1 4.1-1 0.1 0.1 4.1 0 1 1 0-0.9 6.2 0 1 1.1 0 0.1 7.2-1 0 0 1.1 0 1.1 1 0 0.1 2.4-1 0 0 0.6 1 0 0.1 3.6-1.1 0 0 0.5 0.1 4.1 1 0 0.1 3.1-1 0.1 0 1 0.1 4.1 1 0 0.1 3-1 0 0 1.1 1 0 0.1 4.1-1 0.1 0 4.1 0 1 1.1 0 0.1 7.2 0.1 4.1-1 0.1 0.1 3.9-8.3 0.3-8.1 0.1-2.1 0-4.1 0.1-6.2 0.2-4.1 0-2 0.1-6.6 0.1-2.9 0-4.9 0.2-1-0.4-5.1 0.1 1.9-1.1 3.1-2.8-0.2-8.3 1.1 0-0.1-4.1-1.1 0-0.1-7.2-1.1-1 1.1 0-0.1-4.2 1 0-0.1-4.1 0-1.1-1 0.1-0.1-3.1-0.1-4.2-0.1-4.1 1-3 0-1-2.1-0.1 1-1.1-0.1-7.2-0.1-4.1-1.1-4.2 0.9-4.1-0.1-4.1-0.1-4.2 1.1 0-0.1-4.2z" id="60636" name="60636">
  </path>
  <path d="M707.2 666.9l0 4.1 0.2 4.2 0.1 8.2 0.3 12.5 0.1 4.1 0.1 4.1 0.2 12.6 0.2 8.1 0 5.8 0.2 2.5-1.5 0 0.3 16.6-4.8 0-0.1-4.1-2 0.1 0 3.1-4-1.4-1.3 2.4-2.7 0.1-0.2-9.4-2.2 1.2 0.2 8.2-4.1 0.1 0-1.2-4.1 0.3-4.1 1-2 0.1-2.1 0-2 0.1-0.1-1.1-4.1 0.1 0-2.5-3.4 0.2-0.6 2.4-2.2 0 0.1 1-2.1 0.1 0-1-2.1 0 0 1-2 0 0-1-2.1 1-1.8 0.1-0.2 0 0-1-2.1 0-2 1.1-2.1 0-2.1-0.9 0 0.9-1.3 0.1-1.6-4-4.6-11.6-0.5-0.8-1.3-3.9-8.3-12.4-0.4 0-4.6 0.1-10.9 0.2 0.4 16.5-8.3 0.1-0.3-16.4-0.3-10.7 0-4.4 0.3-1.5 7.9-0.1 0-0.9-1.1 0-0.1-2.5 1.2 0 0-0.8-1.2 0.1-0.1-12.4 1 0-1.3-12 1-4.5 4.9-0.2 2.9 0 6.6-0.1 2-0.1 4.1 0 6.2-0.2 4.1-0.1 2.1 0 8.1-0.1 8.2-0.3 4.2-0.1 4-0.1 4.1 0 2.1-0.1 2 0 2-0.1 2.2-0.2 2.5 1.7 1.3 2.7 0.2 0 0.3-4.1 6-0.2 6.1-0.1 1.2 0 2.9-0.1 2.8-0.1 1.4 0 1.3 0 2.8-0.1z" id="60620" name="60620">
  </path>
  <path d="M701.3 350.9l0-1.1-2.7 0 0.1 3-2.5 0.1-1 0-4 0.1-5 0.1 0-1-2.5 1-2.1 0.1-0.3 0-2.5 0-2.3 0-2.1 0.1 0.1 2.2 0.3 3.4 3.3 3.3-4 0-5.8-7.7 0-1.1-0.1-3.7-0.3-7.9-0.1-2.7-0.1-2.1 0-3.1 1.2-3.2 6.9-0.1-3.7-3.6-4.6 1.3 0-2.5 0-3 0-0.3-0.1-2.1 0-1 2-0.1 0 1.1 1.4 0 1.5-0.1 1.7 0 1.6-0.1 0.6-0.1 3.5 0 2-0.1 2.1 0 0-0.1 0.9-1.3 2.3-0.1 0 1.4 1.7 0 1.6 0 2.6 0 0.2 0 0.5-4.3 1.9 4.2 1.2 0 3.5-0.1 5.3 0.2 2.2 0.2-0.4 0.2-1.4 1.1 0.3 2.2 1 5.3 0.1 0.8 0.3 1.8 0.1 0.3 0.5 3 0.2 0.8-6.7 0.7-1.2 0 0.1 1.7 0.5 1.8 0 1.2 0 0.7 0.1 1.9 0 0.3 0 3.3 0.1 1.5 0 0.4 2.2-0.1-2.2 1.9z" id="60610" name="60610">
  </path>
  <path d="M452.9 358.3l8.5-0.2 3.7 0 0-1.1 0.2 0 4.1-0.1 3.1 0 2.4 1.1 0-1.1 2.5-0.1 2.2 0 0.1 4.4 1.1 0 1-4.4 4.1-0.1 1.1 0 3.1 0 0 1.2 8.3-0.1 3.1-0.1 0 1 1 0 0-2.1 1.1 0 0 1.1 6.4-0.1-0.1-1.2 0.4 0 1 16.5 0.4 16.5 0.2 8.3 0 2.1 0.2 6.2 0.1 3.1 0.1 6.7 0.1 1.3 0 5.4-8.1 0.2-8.3 0.2-4.1 0-4.2 0.1-8.2 0.2-8.3 0.2-6.2 0.1-6.2 0.1-2.1 0-2.1 0.1 0-1.1-0.2-7.2 0-3 0-0.5-0.1-0.6-0.2-4.2-0.2-8.3-0.2-8.5-0.2-8.7 0-0.3-0.2-6.7 0-0.8-0.2-8.1 0-1 0-1.1-0.2-5.3z" id="60644" name="60644">
  </path>
  <path d="M175.9 132.6l31.3-0.8 0.5 81.2-0.1 11.2 0 4.5 0 3.7-0.1 7.5 0 7.3 0 3.5 0 13.2 0 10.2-8.7-0.3-7.7-0.2-3.3-0.2-3.2-0.1-0.1 0-4.5 0.2-5.3 0.4-23.6 1.5-0.2 0-1.4 0.2-18.9 1.3-1.8-2.3-0.1-5.2-3.2 0-0.9-2.6-1.8 0 2.1-2.1 0.2-1.8 0-1.4-0.2 0 0-2.8-2.2-0.4 1.2-0.6 0.9-2.1 0-1.6 0-0.7 2.2-1.7 2.8 0 0-2.5 3.9-0.1 3.9-0.1 1.9-3.7 1.1-3.5-6.6 0.4-0.1-1.3 5.3-1.5 1.9-2.8-1.3-0.9-2.7-5.1-0.7 0 0-1.7 4.7-0.7 0.1-1.2 0-2.5 0.4 0 0-4.5 0-4.4 0-5.4-8.4-1.7 0-0.5 0-1.7 0.1-9.2 3.1-0.8 0-3.8 1.1 0 0-0.8 0-0.8 0.9-5.7-0.2-3-4.9 0.1-2.1 0.1-0.1 0 0.5-16.1 1.4-1.4-0.1-9.5 3.1 0.6 0.1-14.1-10.6 0.2 0-8.2 16.1-0.4 0.1 19.7 8.2-0.3 2.4-12.6 0-7 9.7-0.3 0.1 13.3 0 2.2 12.3-0.2-0.2-15.5 1.7-0.1z" id="60106" name="60106">
  </path>
  <path d="M613.5 122.7l-2.1 0 0 3 0.2 5.3 2.3-0.1 0 2.7 0.5 0 0 2.7 0.9 2.8-1.3 0-6.2 0.1-6.2 0.2-4.2 0.1 0.2 8.4 0.2 8.3 0 1-6.1 0-0.1-1-2 0-4.5 0.1-0.1 1-2.6 0 0-1-1 0-1.1 0 0.1 1-9-1-1.3 0-2 0.1-3.2 0 0.1 1-4.1 0.1-0.1-1-2 0-2.1 0 0.1 1.1-4.2 0 0.1 3.1 0.1 4.2 0.1 4.2 0 4.1-2.1 0.1-11.7 0.1-0.7 0.1-6.2 0-0.2-8.1-0.1-8.5-0.1-3.8 5.5-0.2 0.1 4 11-0.2-0.4-16.7-2 0.1-2.2 0-12.3 0.2-0.3-1.5 2-2.6-1-4 0-2.7-1.1 1.8 0-3.1 2.7-3 0-1.1 1.4 0 6.2 0 4.2 0 1.8 0 1.1 0 7.3-0.1 4-0.1 2.1 0 2.2-0.1 2 0 0-1.1 4.1-0.1 0.1 1.1 2-0.1 2.1 0-0.1-1.1 2.1 1 2.1 0 2-0.1 0-1 4.1-0.1 2.1 1 2.1-0.1 2.1 0-0.1-1.1 6.2-0.1 0 1 4.2-0.1 1-0.9 1 0 0 0.9 2.1 0 2-1 4.2-0.1 0.9-2.2 1.1 2.9 0 0.2z" id="60659" name="60659">
  </path>
  <path d="M670.3 436.3l3.5-0.1 0-3.3 0.7 2.3 8.6 0.4 0 0.4 3.4 0.2 2.3-0.2 0.9-3.7 0.5-12.9 0.7-0.1 2.9 0 3.8 0.2 0.3 12.2 0 4.1 5.2-0.1 2.5-0.1 1.5 0 1.4-0.1 2.5 0 0.3 0 2.5 0 0-0.6 0.7 0.9 2.6 5 3.6-0.1 3.7 11.6 11.4 0.2-4.5 1.9 0.5 4.7 1.3 10.5 0 0 0.5 1.6 4.9 13.6 0.1 0.1 4.4 12.4 1.4 3.8-9.4 0.3-2.1 0-1.8 0.1-0.7 3-5.8 0 0-1.9-0.1-1-3 0.1-1.1 0-0.6-0.1-1.9 0.1-3.6 0-2.1 0.1-1.2 0-1.3 0-2.9 0-1.5 0.1-1.3 0-4 0.1-1 0-3.2 0-1.9 0-5.9 0.2-0.3 0-6.3 0.1-2.1 0-4.1 0.1-4.1 0.1-0.1-4.2 1 0 0-4.1-0.2-7.3-1 0 0-1-0.1-4.6 1.1 0-0.1-3.1-1.1 0 0-0.5 1.1-0.1-0.1-4.1-0.1-4.1-1 0 0-1.5 7.2-2.9-2.2-2.7 0.4-0.2 1.8-0.9-0.6-2 1.7-1.9 2.4-4.7 1.9-0.2 0.7-1.8-0.2-2.4-1.2 0-2.4 4.4-3.4 5.6-2.2 1.9-0.5 0-1-2.4-0.7-5-1.8 0.1-0.1-4.6 2.3-1.4-2.3-10.5z" id="60616" name="60616">
  </path>
  <path d="M765.2 649.3l-0.9 0-2.5 0-2.3 0-12.7 0.4-5.6 0-1.6-0.1 0 0-4.2 0.1-0.2 0-3.9-3.6 0.1 3.7-4.1 0.1-4.1 0.1 0-0.9-2.7 1-1.3 0-4.2 0.1-8.1 0.2 0-4.1 0-4.1-0.3 0-0.2-8.2 0.1-4.6 0-0.3-0.4-11.6 0-7.2 0-1.1 1 0 0.2-4.2-1.3 0-0.1-4.1 1 0 0.3-4.2-0.1-4.1-0.1-4.2-1.3 0.1-0.1-3.3 0-0.8 8.2-0.2 8.2-0.2-0.1-8.3 3.6 0.1 10.2-0.3 2.6-0.1 0.2 8.3 4.2-0.1 4.1-0.1 2.8 0 5.3-0.1 0.6 0 0 0.8 0.2 0 0.6 0 0.3-0.1 1 0 0-0.7 2.7-0.1 1.8-0.4 5.2 0.2-0.1 0.5 2.9-0.4 0.1 0-0.8 4.1 0.5 0 1.7-0.1 2.2 0 0-1.3-2.3 0.1 0.1-2.9 2.1 0 2.5 0 2.4-0.1 4.6-0.1 6.1 0.3-0.1 0.3-5.5 3.6 2.8 8.7 0.8 2.6 0 0.1 0 0.1 0.1 0.3 1.3 3.9 0.2 0.8 0.1 0.3 1.7 3.5 0.5 6.8-0.3 1.8-7.2 2.1-8.3-1.9-1.3 6.1 0.5 6.1-2.1 4.3-0.3 0 0 2.1-1.1 0 0.1 2 1 0 0.1 4.2-0.2 2-1.1 0-0.2 6.1-1.3-0.1-2.6 0.1-1.7 0.2z" id="60637" name="60637">
  </path>
  <path d="M606.9 586.1l0.1 4.2-1.1 0 0.1 4.2 0.1 4.1-0.9 4.1 1.1 4.2 0.1 4.1 0.1 7.2-1 1.1 2.1 0.1 0 1-0.9 3 0 4.1 0.1 4.2 0.1 3.1 1-0.1 0 1.1 0.1 4.1-1 0 0.1 4.2-1.1 0 1.1 1 0.1 7.2 1.1 0 0.1 4.1-1.1 0 0.2 8.3-3.1 2.8-1.9 1.1-2.2 0-8.2 0.4-16.6 0.2-15 0.4-1.4-0.3 0 0.6-6.7 0.1-10 0.1-0.1-10.7 0-0.9-6.8-4.9-1.7 0-3.1 0-5.3-2.4 0.1 2.5-1.9 0-10.3-4.3-4-2.3-0.2 6.5 0.1 5 15.2-0.9 0.6 10.7-12.7-0.2-2.7 0.8 0 1.9-8.1 0.2 7.9-7.2-0.1-1.3-8.4 0.1-0.3-11.9 3.7-4.3 4.4-0.2 0.1-8.6 1 0-0.1-8.3-0.1-4.1-1.1 0-0.1-4.2 0.2-11.1 1.3-2.2 2.4-0.5 0.9-2.8-0.5-13.5-0.9-3 3.9 0 0.3-0.1 0.4 1.1 5.8-0.1 2 0 4.2-0.1 4.1 0 4.2-0.1-0.1-1 3.1 0 1.1-0.1 0 1.1 4.2-0.1 4.1 0 7.9-0.2 0-1.1 0.3 0 4.2-0.1 0 2.4 6.2-1.5 4.2-0.1 0-1 2-0.1 2.1 0 0 1 6.2-0.1 3.1-0.1 1-0.2 0 0.2 4.2-0.1 4.1-0.1 4.1-0.1 0-1.1 2 0 3.2-0.1 3-0.1z" id="60629" name="60629">
  </path>
  <path d="M452.9 358.3l0-1.1-0.1-4.1-0.1-4.1-0.1-4.1-0.1-4.2-0.1-4.4-0.1-3.9 0-0.5-0.2-6.5 8.2-0.2 2.1-1.2 2 0 0 1.1 2.1 0 0-1.1 2.3-0.1-0.3 1.2 4.2-0.1 0-1.1 0.7 0 1.9-0.1 0 1.2 3.8-0.1 1 0 1.1 0 2-1.2 2.4-0.1 3.9 0 0 1.1 4.2-0.1 0 3 4.2 0 4.2-0.1-0.1-3 4.2-0.1 0.1 6.1-2.1-1.4-2.1 0 0 2.5 7.5-0.1-0.1-3.9 0.5-4.4 2.7 0 5.9-0.1-0.1 1.1 2.1-0.8 2.1 1.1 2.1 1.1 2-1.5 3.2-0.1 1 1.6 0-1.1 4.2-0.6 4 0 4.1-0.1 0-1.1 0.4-0.1 1.7 0 0.4 0 3.7-0.1 2.1 1.1 4.1 0 0-1.2 0.6 0 0.1 1.2 3.2-1.2 0.2 0 0 1.1 4.2-0.1-0.1-1.1 1.8-0.1 2.6 0-0.2 0.6 0.1 5.7 0.1 2 0 2.1 0.2 6.2 0.1 4.1 0.1 4.2 0 2 0.2 6.2-2.1 0.1 0 0.9-4.1 0.2-2.1 0 0-1.1-2.1 0.1-2 0-2 1.1-0.1-0.2-1 0 0-0.9-1 0-4.2 0.1 0.1 1.1-6.2 0-4.2 0.1 0-1.1-2 0.1-4.2 0.1-2.1 0-2.1 0.1-4.2 0.1-8.3 0.2-3.6 0.1-1.1 0-0.4 0 0.1 1.2-6.4 0.1 0-1.1-1.1 0 0 2.1-1 0 0-1-3.1 0.1-8.3 0.1 0-1.2-3.1 0-1.1 0-4.1 0.1-1 4.4-1.1 0-0.1-4.4-2.2 0-2.5 0.1 0 1.1-2.4-1.1-3.1 0-4.1 0.1-0.2 0 0 1.1-3.7 0-8.5 0.2z" id="60651" name="60651">
  </path>
  <path d="M568.9 355.3l-0.2-6.2 0-2-0.1-4.2-0.1-4.1-0.2-6.2 0-2.1-0.1-2-0.1-5.7 0.2-0.6 6-0.1 2.5 0 0.2 2.2 0.9 3.4-1.7 9.6 5.4 0.6 1.3-0.4 1.1-1 0.2-10.3 0.8 0 0-4.2 4.2-0.1 0 0.2 2-0.1 2.1 0.9 0 0.1 1 0 3.1 0 2.1-0.1 2.1 0-0.1-1.1 0.7 0 0 1 3.5-0.9 0-0.2 0.2 0 0 1 1.6-0.1 0-0.7 0.2 0 0-0.2 2.1-0.1 0 0.7 4-0.8 0.1 0 0 0.5 3.6-0.6 0.5 0 1.1 0-0.1-3.4-0.4-0.7 0.4-0.1 0-3.3 1-0.9-2.1-0.1 0-1.1 0-1.7-0.1-2.1 1-2.1-1 0 0-1 0-1.1 1 0 3.1-0.1 0 1.1 4.1-0.1 2.1-0.1 1.8 0 2.3 2.6 1.6 1.4 0.6 1 0.9 3-0.4 0 1 2.1-1.4 1.2 0 0.1 0.1 5.1 1 0 0.2 8.2 0.2 6.3-1.1-0.1 0 0.6 1.7 1.5-1.7 0 0.1 2.1 1 2 0 2.1 0 2.1 0 1 0 1-0.8 2.1 0 2.2 0.1 1.9 0 4.2 0.1 2.1 0 2 1 0-0.9 2.2 0 1.1 0 1 2.8 1.5 0.1 2.3-2.8 0.1-4.1 0-4.1 0.1-8.3 0.2-0.1-2.3 0-1.6 0-0.9-0.8 0 0-0.8 0.8-0.1 0-0.8-0.1-3.7 0-1-0.1-3.6-4.2 0.1 0-0.5-4.1 0.1-4.1 0.1-4.2 0.1 0-1.1-4.2 0.1 0 1-8.3 0.1-4.1 1.1 0 0.9-0.1 0.3-9.2-1.5-0.1-1.7-2.7 0.1-4.6 0z" id="60622" name="60622">
  </path>
  <path d="M452.1 325.4l0-1.2-5.5 0.1-1.1 0-6.5 0.1-2.8 0.1 0-1.5-1.4 0-0.2-6.8-0.1-4.1 1.4 0-0.1-4.2 0-0.5-1 0-0.3-11.8 1.1 0-0.1-1.8 0-2.4-0.3-8.3-6.3 0.5-2-0.3-0.2-8.4 2.2 0 4.1 0 2.1-0.1 2 0 0-1.1 6.1 0 0.1 0.9 2 0 4.1-1 0 0.9 2.1 0 0-1.1 4.1 0 4.1-0.1 0 1 2.1 0-0.1-1.1 4.2 0 0 1 1 0-0.1-4.2 1 0 0.1 3.1 1 0 3.2 0 0 1 4.1-0.1 0-1 8.3-0.2 8.3-0.1 7.2-0.1 1.1-1.1 0.1 2.1 4.1-0.1 0.9-4.2 0.7-8.3 1.9 0 0.3 12.4 2.4 0-0.1-4.1 1-0.1 1.1 0 0.1 3.3 2-0.1 2.1 0.9 2.1 0 2.1-0.1 2-1.1-0.1-3.1 1.4 0-1.4-3.6-0.2-0.5 1.2 0 1.6 4 7.8-0.1 0.1 4.2 0.2 8.3 1.1 1.1 1.1 7.2-2 0 0 1.1 1 0 0.1 3-0.6 0.1-1 0 0.7 4.1 1.4 0 1.6 4.1-3 0.1 0.1 4.1 0.1 4.4 1.1 0 0.1 3.3-1.1 0 0 0.3 0 1.3 1.1 0 0.1 3.1-1.1 0 0.1 4.2-0.2 1.1-4.2 0.6 0 1.1-1-1.6-3.2 0.1-2 1.5-2.1-1.1-2.1-1-2.1 0.7 0.1-1.1-5.9 0.1-2.7 0.1-0.5 4.3 0.1 3.9-7.5 0.1 0-2.4 2.1-0.1 2.1 1.4-0.1-6.1-4.2 0.1 0.1 3-4.2 0.1-4.2 0 0-2.9-4.2 0 0-1.1-3.9 0.1-2.4 0-2 1.2-1.1 0-1.1 0-3.7 0.1 0-1.2-1.9 0.1-0.7 0 0 1.1-4.2 0.1 0.3-1.2-2.4 0.1 0.1 1.1-2.1 0.1 0-1.2-2 0-2.1 1.2-8.2 0.2z" id="60639" name="60639">
  </path>
  <path d="M609.5 767.9l0.3 12.4 1.1 0 0.1 4.1-1.1 0 0.3 12.4 0 3.1-1 1.1 1.1 0 0.1 4.1 1.1-0.1 0 1.6 0.1 2.6-1.1 0 0.1 7.2 1.2 0 0 1.1-1.1 0 0.1 7.2-1 1-6.2 0.1 0.2 4.1 2.1 0 6.2-0.1 0.1 4.2-1.1-0.1 0.4 15.2-1 1.2-4.1 0.1-2.1 0.1-1.3 0-15.2 0.3-0.3-11.8-0.2-4.7-0.1-8.3-6.4 0.2-1.9 4.1 0.1 4.2-8.2 0.2 0.2 8.2-8.2 0.2-2.1 0.1-0.2-8.3-6.2 0.1-4.1 0.1-2.2 0-2 0.1-13.9 0.3-2.5 0-12.8 0.4-3.6 0-0.4-16.3 0-0.1 4.1-0.2 8.1-0.3 4.1-0.1 6.1-0.1 2.9-0.1 7.5-0.1-0.2-4-0.1-4.1 0-2.5-0.3-5.9 0-4.1-0.2-4.2-0.1-4.1-0.1-4.1-0.2-8.3-0.2-8.3 2.1 0 8.3-0.2 4.1 0 2.1 4.1 0.3 12.2 6.2-0.1 4.1 0 6.3-0.1-0.1-2.1 8.4-0.1 8.3-0.2-0.1-2-0.1-6.2-0.2-6.1 8.4-0.2 7.2-0.1z" id="60655" name="60655">
  </path>
  <path d="M789.3 583.2l-6.1-0.3-4.6 0.1-2.4 0-2.5 0.1-2 0-0.2 2.9 2.3-0.1 0 1.3-2.2 0-1.7 0.1-0.5 0 0.8-4.2-0.1 0-2.8 0.5 0-0.5-5.2-0.3-1.8 0.5-2.7 0 0 0.8-1 0-0.3 0.1-0.6 0-0.2 0 0-0.8-0.6 0-5.3 0.1-2.8 0-4.1 0.1-4.2 0-0.1-8.2-2.7 0.1-10.2 0.2-3.6 0 0.1 8.3-8.2 0.2-8.2 0.2-0.2-7.9-0.1-8.7-0.2-8.4-0.1-4 1.4 0-0.1-4.2 1.4 0 5.5-0.1 2.7-0.1 2.4 0 2.2-0.1 0.5 0 0.4 0 4.2-0.1 0 0.9 2-0.9 2.1 0 4.1-0.1 3-0.1 0.1 4.1 1.1 0-0.1-4.1 3.7-0.1 0.9 0 3.7 0 0 0.8 0 0.5 7.2 0 1-0.8 0-0.6 7.4-0.1 1.7-0.5 6.2-3 1.4 2.2 4.1 6.8 1.5 2.4 2.5 4.1 0.2 1 0.9 3.2 1.1 4 0.1 0.3 0 0 1.1 4.1 5.5 4.3 1.9 1.4-0.7 2.6z" id="60615" name="60615">
  </path>
  <path d="M509.6 670.9l0-1.9 2.7-0.8 12.7 0.2-0.6-10.7-15.2 0.9-0.1-5 0.2-6.5 4 2.3 10.3 4.3 1.9 0-0.1-2.5 5.3 2.4 3.1 0 1.7 0 6.8 4.9 0 0.9 0.1 10.7 10-0.1 6.7-0.1 0-0.6 1.4 0.3 15-0.4 16.6-0.2 8.2-0.4 2.2 0 5.1-0.1 1 0.4-1 4.5 1.4 12-1.1 0 0.1 12.4 1.2-0.1 0 0.8-1.2 0 0.1 2.5 1.1 0 0 0.9-7.9 0.1-0.3 1.5 0 4.4 0.3 10.7-3.9 0.1-4.4 0.1-0.1 0-8.1 0.2-2.4 0-6 0.1-16.3 0.4-0.4 0-11.9 0.3-4.1 0.1-4.1 0.1-4.1 0.1-0.8 0-1.3 0-2 0.1-5 0.1-1.2 0-2 0.1-5.1 0.1-7.6 0.2 0.2-8.3-0.3-8.4-0.2-8.5-0.2-8-0.1-4.1-0.1-5.3-0.2-7.2z" id="60652" name="60652">
  </path>
  <path d="M615.3 139.1l1.1 0 5.7-0.2 0.6 0 0.1 9.3-0.1 0.2 0.1 5.4 0.1 1.9-0.4 0.1-7.9 0.6 0 2.6-0.1 0.2 0.2 9.1 0.7 0 1.9 2-2.6 0 0.1 2.1 1.3 0 0.1 5.8-1.3 0.5 0.1 2 1.3 3.3-1 0.8 1 0-1.2 3.1 0 1 0.1 0.9 1.2 0 0.1 3.3-1.3 0 0.1 1.2 1.3 3-1.3 0 0.1 4.1 1.3 0 0 3.5-1.2 0.1 0 0.6-1 0-0.4 0-2.4 0-1.7-1-2.7 0.1-0.1-3.1-1 0-0.9 0 2 4.1-8.2 0.2-2.1 0 0-1-4.1 0 0 1-4.1 0.1-1.4 0-0.3-1.1-5.6 0.1-1 0 0 1-0.2 0-0.5-1-3.5 0-1.1-3.1-0.1 4-0.8 0 0-0.8-2.1 0-1 0-1.1 0-2 1.1-2.1 0-2.1 0-2-1-2.1 0-2.1 0.1-2.1 0-4.1 0-2.1 0.1-3.5 0.1-0.6 0.6 0-0.6-3.5 0-0.6 0.6 0-0.5-2.1 0-5.5 0.1 0 1-0.7 0-0.1-3.6 0-0.6 1-0.1 0-4-0.2-7.3-1 0.1-0.1-1.1 0-1 1 0-0.5-3.1 0.5 0-0.1-4.2-1 0-0.2-8.3 6.2 0 0.7-0.1 11.7-0.1 2.1-0.1 0-4.1-0.1-4.2-0.1-4.2-0.1-3.1 4.2 0-0.1-1.1 2.1 0 2 0 0.1 1 4.1-0.1-0.1-1 3.2 0 2 0 1.3-0.1 9 1-0.1-1 1.1 0 1 0 0 1 2.6 0 0.1-1 4.5-0.1 2 0 0.1 1.1 6.1-0.1 0-1-0.2-8.3-0.2-8.4 4.2-0.1 6.2-0.1 6.3-0.2 1.2 0z" id="60625" name="60625">
  </path>
  <path d="M313.7 209.8l2.8-6.5 1.6-8.4-0.4-4.5 1.6-7.5-7.8-0.1-5.2-4.3-0.7 0.1-10.7 0.3 0-1.7 3-0.1 8.1 0.2 0.1-2.9 10.3-13.7-0.9-5.6 16.8-0.3 0.1 8.4 0 0.2 8.2-0.3 0.1-0.9 6.8 0.7 1.5 1.5 0-0.5 0-1.5 0-8.6 11.9-0.5 10.4 1-0.1 0.8-7.6-0.9-0.4 0.4-8.3 0.4-3.3 2.6 1.2 3.1 2 1.4 6.5-0.1 0.8 0 7.4-0.2 1.2-1.5 1 1 2.3-0.1 4.2-0.2 3.3-0.1 0 1.1 0.8-0.1 0.1-2 3.1-0.4 1.4-0.5 0.1-0.9 1.5 0.3 10.6 0 0-1.3 1.5 0 14.3-0.2 8.5-0.1 7.2 0 1 0 0 1.2 0 0.7-1.1 0 0 6.3-0.9 5-0.3 0.9 2.1 0.9 0 1.5-1.1 0-0.2 15.4-5.1 0.1-6.2 0-4 0.1-2.1 0-2.1 0-2 0-2 0.1 0 1-7.8 0.1 0.1-6.1 0-6.3 0-1.9-8.3 0.3-8.3 0.3-0.1 8.2-2.5 0.1-0.2 0-0.7 0-0.8-7.9-4.1-0.1-4.8 0.1-3.5 0.1 0 2.1-8.4 0.2-2.8-2-0.4-2.5-5.1-0.5 0 1-8.3 0.2 0 2.1 6.1-0.1 2.2 5.7 0 2.5-8.4 0.2 0.1-4-6.3 0-2.1-0.1-0.1 6.4 0 6.2 6.4-0.2 10.3-0.2 0 11.3 0 1.4 0 3.7-11.3 0.2-23.8-0.7z" id="60656" name="60656">
  </path>
  <path d="M294.9 178.9l-1.8 0.1-4.9 0.1-7.9 0-1.1 0.1 2.3 11.9-0.5 5.1-0.8 2.8-5.8 8.8-5.1 5.3-1 1.4-10.9-1.2-3.9-0.1-0.3 7.7-3.9 5.2-1.3 1.3-1.7 1.1-2.6 0.8-4.2 0-5.6-0.6-6.8-1.6-9.8-3.5 0-7.5-2.3-1.4-1.6-0.6-5.7-1.1-0.5-81.2-31.3 0.8 0.5-2.3 2.1-6.1 2.9-5.7 3.3-4.6-1-5.9 0.1-3.1-1.7-0.4-0.3-0.1-1.3-0.4-0.2-4.7-5.5-0.1-1.1-0.2-0.1-7.9-0.1-5.2 0-0.4 0.5-2.9 14-0.1-0.9-1.8-13.8-3.9-16.1-4.4 5.9 1-1.3-2.9 6.9 0-0.3-4.2 4.9-0.1-0.1-7.3 0-9.3 8.2-0.3 7.5-0.2 4.8-0.1 3.4-0.1 9.3-0.3 20.1-0.6 12.4-0.6-0.1 0.3 0 0.9 3.1-0.3 0-1.1 1.2-0.1 11.2-0.4 0.3-0.1 0.2 1 3.7-0.2 0-1 1 0 5.1 0.7 0-1 3.3-0.2 0 0.9 6 0.1-0.1-1.1 0.9 0 4.1-0.1 0.9 2.1 4.8 5.7 0.1 0.5 0.3 2-0.6 4.9 0 2.5 0.3 2.3 3.5 4.5 0.8 0.8-3.3 5.5 0.6 2.3 2 1.9 2.5 0.9 2.1-1.5 4-2.9 1.6 1.4 2.7 9.8 6 6.1 2.6 4.3-1.7 4.1-5.8 3.8 0.3 3.6 0.6 1 7 7.6-0.4 1.1-1.3 1.7-1.5 1.5 0.2 1.2 1 1.1 2.3 1.8 1.7 3.1-2.2 5.4 1.2 2.2 5.3 4.8 0.2 0.5 0.2 1 0.2 0.6 0 0.4-0.3 1-0.6 1.6-1.2 4.6 0.6 2.6 1 5.6-10.4 13.7-0.1 2.9-8.1-0.2-3 0.1 0 1.7z" id="60018" name="60018">
  </path>
  <path d="M679.7 398l6.1-0.1 2.1 4.3 0.2 1.1 4.1-0.1-2.6-2.5-0.1-2.8 2.6-0.1 0.9 0 0.1 5.4-0.1 0 0.1 5.3-0.8 0-0.1 5-1.3 5.8-0.7 0.1-0.5 12.9-0.9 3.7-2.3 0.2-3.4-0.2 0-0.4-8.6-0.4-0.7-2.3 0 3.3-3.5 0.1-0.2 0-0.2-5.6-0.2 0 0-0.4-0.6 0 0-1.6 0.8-0.7 0-0.7-1.8 0 0.1 3.5-5.2 0.1-0.1-2.8-0.2-8.1-9.5 0.2 0-1.1-8.3 0.2 0 1.1-8.2 0.1-0.2-5.4-2 0-0.1-5.4 2 0-0.1-6-0.1-4.8-0.1-1.7-4 0.3-0.1-1.4 2.6 0 0-2.9 1.4 0 0-2.9-1.4 0 1.4-1.4 0-1.5-0.1-2.1-0.1-2.1-0.1-10.3-4.2 0.1 0-2.4 4.1 0 2.8-0.1 4.4 0.4 1-0.7 5.6 0.2 2.7 0 0.6-0.1 4.1 0 3.9-0.1 5.9-0.1 0.1 3.8 1.9 0 0.1 1.3 0.2 8.3 0.1 3.1 0 2.9 0.2 8.7 2.6 0 2-0.1 0.9-1.4 0 1.4 5-0.1z" id="60607" name="60607">
  </path>
  <path d="M588.5 499l0-2.8-6.7 2.9-7-0.7 1.4-3.3 1.2 2.1 11.1-4.6-0.1-5.2-8.3 0.2-0.4-15.8 1.8-0.6 2.4-0.3 3.1 0 1-0.1 0-2-1.1-1.9-0.2-3.3 1.1 0 0-0.9 0-2-1.1 0 1-4.2-0.1-2-0.1-4.2 0-2.1-3.2 0-2.9 0.8-0.1-0.3 6.2-1.8-0.1-0.7-0.1-4.2-0.1-4.2-0.1-4.7-0.2-11.8-0.1-5.4 0-0.8 8-0.1 0.2 3.3 1.1 2.9 3.3-0.1 0-1.1 3.2 0 0 1.1 0.9 0 4.2-0.1 5.6-0.1 6.7-2.8 8.4 2.5 8.3-0.1 8.2-0.1 0-1.1 8.3-0.2 0 1.1 9.5-0.2 0.2 8.1 0.1 2.8 5.2-0.1-0.1-3.5 1.8 0 0 0.7-0.8 0.7 0 1.6 0.6 0 0 0.5 0.2 0 0.2 5.5 0.2 0 2.3 10.5-2.3 1.4 0.1 4.6 1.8-0.1 0.7 5 1 2.4 0.5 0 2.2-1.9 3.4-5.6 2.4-4.4 1.2 0.1 0.2 2.3-0.7 1.8-1.9 0.2-2.4 4.7-1.8 1.9 0.6 2-1.7 0.9-0.4 0.2 2.2 2.7-7.2 2.9 0 1.5 1 0 0.1 4.1 0.1 4.1-1.1 0.1 0 0.5 1.1 0 0.1 3.1-1.1 0 0.1 4.6 0 1 1 0 0.2 7.3 0 4.1-1 0 0.1 4.2-1.1 0 0-1.2-2 0.1 0 1.1-1 0-4.1 0.1-0.1-1-4.1 0 0-1-1.3 0-2.6 1.1 0 1.1-2.7 0-3.3 0.1-0.2-1.1-1.6-2.7-0.6-0.3-6.2 0 0.1 4.2-2.1 0-0.1-0.9-1.9 0-1 0-3.2 0-2 0 0 1-1 0.1-0.1-1.1-7.2 0.1 0 1.1-2 0-2.1 0 0-2.2-2.8 2.3-8.6 0.1-2.1 0.1 0-1.1-2.8 1.1-0.1-4 0-5.9-12.7 5.3z" id="60608" name="60608">
  </path>
  <path d="M660.4 585.4l-2.1 0-2 0.1-4.2 0-4.1 0.1-2 0-2.1 0.1-4.1 0.1-4.1 0.1-4.1 0-4.1 0.1-4.1 0-2.1 0-2 0.1-3.5 0-5.9 0.1-2 0-1-0.1-3 0.1 0.9-3.2 0.8-5.1-0.1-4.1 1.2-0.1-0.1-4.1-2.1 0.1 1-1.1-0.1-6.8 1-0.1 0-4.5-0.1-4.1-0.1-2.1-1.2-2 0-4.1-0.1-4.1-1.1-3.2 0-0.9 1-0.1-0.1-4.1-1.2-11.3 0-1.1-1-4.3 0.8-0.7-1.3-3.3 3.4-0.8-1.3-7.4 2.1-0.1 8.6-0.1 2.8-2.3 0 2.2 2.1 0 2 0 0-1.1 7.2-0.1 0.1 1.1 1-0.1 0-1 2 0 3.2 0 1 0 1.9 0 0.1 0.9 2.1 0-0.1-4.2 6.2 0 0.6 0.3 1.6 2.7 0.2 1.1 3.3-0.1 2.7 0 0-1.1 2.6-1.1 1.3 0 0 1 4.1 0 0.1 1 4.1-0.1 1 0 0-1.1 2-0.1 0 1.2 1.1 0 4.1-0.1 4.1-0.1 2.1 0 6.3-0.1 0.3 0 5.9-0.2 1.9 0 3.2 0 1 0 4-0.1 1.3 0 0.1 5.2 0.1 5.1 0.1 6.2 0.4 16.4-1.4 2.1 0.2 5.7 1.3 0 0.1 4.5-1.3 0.1 0 4.1 1.4 0 0.1 4.1-1.4 0 0.1 4.1 0.2 8.3 0.1 8.7 0.2 7.9-4.9 0.1-4.7 0.1-4.8 0.1-2 0.1-4.2 0.1-4.2 0.1 0 0-8.1 0.2-4.2 0-4 0.1-2.1 0-2 0.1z" id="60609" name="60609">
  </path>
  <path d="M701.7 373.6l-0.1-4 0-3.6 2.3-1.9-2.3 0-0.1-1.8 0-3.6-0.1-1.8-0.1-4.1 0-1.9 2.2-1.9-2.2 0.1 0-0.4-0.1-1.5 0-3.3-0.1-0.4 0-1.8 0-0.8 0-1.1-0.5-1.8-0.1-1.7 1.2-0.1 6.7-0.6 0.2 0.7 0.2 0.5 0.6 1.7 0.7 1.7 0.1 0.4 0.5 0.2 2.5 0.6 2.3 0.7 1.5 2.9 1 1.8 0.5 1 0.2 0.3 2.4 4.4 1.1 2.1 2.7 5.1 0.1 0 0.2 0 3.5-0.2 2.9-5.4 0.4-0.6 13 0.1 0.2 6.8-12.5 0.3 0.2 8.1-3.1 0.2-0.2-2.4-2.8 0.1-0.9 0 0 0.8-0.2 4.3 0 0-6.4-0.3-4.9-0.3-3.8-0.7-2.8-0.1-1.5 0.1-2.7 1.9-1.9 1.2z" id="60611" name="60611">
  </path>
  <path d="M586.9 421.3l-8.3 0.1-4 0.1 0 1.1-2.1 0-2.1 0 0-1.1-0.2-6.2 0-2.1-0.2-4.1-1 0 0-2 1 0-0.1-2.1-8.2 0.1 0-1.4 0-0.7 5.8-0.3 2.4-0.5 0-0.3-4.2 0-0.1-5.1 4.2-0.1-0.1-2.3-0.1-4.5 0-1.5-0.1-2 0-2.1-0.1-3.5-0.1-6-0.9 0 0-1.2 0.9 0-0.1-1.5-0.1-4.3 0-0.6-2 0.1-0.1-1.2 1-2.4-0.1-4.2-1.1-3.2 0-0.9 2.1-0.1 4.6 0 2.7-0.1 0.1 1.7 9.2 1.5 0.1-0.3 0-0.9 4.1-1.1 8.3-0.1 0-1 4.2-0.1 0 1.1 4.2-0.1 4.1-0.1 4.1-0.1 0.1 0.5 4.1-0.1 0.1 3.6 0 1 0.1 3.7 0 0.8-0.8 0.1 0 0.8 0.8 0 0 0.9 0 1.6 0.1 2.3 8.3-0.2 4.1-0.1 0 2.4 4.2-0.1 0.1 10.3 0.1 2.1 0.1 2.1 0 1.5-1.4 1.4 1.4 0 0 2.9-1.4 0 0 2.9-2.6 0 0.1 1.4 4-0.3 0.1 1.7 0.1 4.8 0.1 6-2 0 0.1 5.4 2-0.1 0.2 5.5-8.3 0.1-8.4-2.5-6.7 2.8-5.6 0.1-4.2 0.1-0.9 0 0-1.1-3.2 0 0 1.1-3.3 0.1-1.1-2.9-0.2-3.3-8 0.1 0 0.8 0.1 5.4z" id="60612" name="60612">
  </path>
  <path d="M615.5 205.6l0-0.6 1.2-0.1 3.8 0.1 0 0.5 3.5-0.1 5.3-0.1 2.6-0.1 2.6 0 3 0 1.7-0.1 3.3 0 3.4-0.1 2.4 0 4.3-0.1-1.6-8.3 0.9 0 2.9 6.2 1 2 0.7 0 0-1 5.9 0.9 2.2 0 0-2.1-0.1-2.1 0-1.9 0-2.2 1 0 3.5-0.4 0.5-0.1-1.5-8.4 6.7-1.6 0.5 0.7 7.5 8.2 11.5 2 1.6 4.2-7.5 4.7-0.1-0.1-3-1.9-6.2 1.3 1 15.5 0 0 0.1 2.4 5.7 11.6-6.1 3.1-2 1.1-0.3 0.2-0.9-2.1-1-2.1-1.4 0.7-0.4 0.1-1.2 1.8-0.5-1-3.1 1.4-1 0-2.5 0-4.1 0.1 0 0.3-2.1-0.3-2 0.1 0.1 3.9-1.3-1.7-0.9-2.2-1.6 0.1-4.5 0.1 0 1.1-4.1 0.1-3 0-0.1-1.1-1 0.1-2.1 0 0.1 0.3-0.8 0 0 0.9-3.3 0-0.1-1.1-2 0-2.1 0.1 0 0.2-0.4 0 0 0.9-1.6 0 0-1.1-2 0.1-0.3 0-1.7 0.3 0-0.3-0.6 0 0 2.1-6.6-0.9-1.1 0 0-1.1 1 0-1-2.1-0.1-2 1 0 0-1.5-0.3-0.2-0.5 0 0-0.4-0.2 0-0.1-2.1 1.1 0-0.1-3.7-1-0.4-0.1-4.2-0.1-2.1 1-4.1-1.1 0 0-2 0.2 0 1-0.7-1.3-2.9 0-0.6 1.3 0-0.1-4.2-1.3 0.1z" id="60613" name="60613">
  </path>
  <path d="M707.6 320.1l-2.1-0.2-5.3-0.2-3.5 0.1-1.2 0-1.9-4.2-0.5 4.3-0.3 0-2.5 0-1.6 0-1.7 0 0-1.4-2.3 0.1-0.9 1.3 0 0.1-2.1 0-2 0.1-3.5 0-0.6 0.1-1.6 0.1-1.7 0-1.5 0.1-1.4 0 0-1.1-2 0.1 0-0.4-2.1-0.2 0 1.7-2.1-2.1-4 0.1 0-0.3-2.1-2.6-1.9 5.1-0.7 0-1.6 0-2.7-8.3-4.1-3.4-4.6 0.8-1-3.1-0.4-1.4-5.8-9.1-1.1-1.2-0.2 1.3 0.9 6.8 0.2 1.4 0.4 1.5-0.7 2.6-1.6-1.4-2.3-2.6-1.8 0-2.1 0.1-4.1 0.1 0-1.1-3.1 0.1-1.1-2 0-1-0.1-1.1 1-2.1 3.2 2 1.1-0.1-5.4-4.5-0.2-6.6-0.4-6.9-0.1-1.3-0.1-4.2 0.2-4.1 0-1 1.1-0.1 3 0 0.1 1 2.8 0 0.8-6.1 0.2 6 0.7 0 1-1 5.8 0.9 1 0 1 0 7.1-1.2 3.1 1 1.1-0.1 4.1 0-0.1-1.1 3.5 0 0.3 1 0.8-0.1 0-1 3.6-0.1 0.1 1.1 1.2-0.1 6.2-1.1 0.1 1 0.7 0-0.1-1.2 3.2 0 0.8 1.1 0.2 0 2.8-0.1 1.1-3.3 1.3 0 0 3.2 1.3 0-0.1-1.1 1.8-0.1 0.1 1.2 0.5-0.1 3.4-0.1 2.4 0 2.9 0.2 0.2-0.7 6.6-1-0.2-2.8-2.5-4.5 3.2-0.3 0 0.2 1.6 8.4 0 0.3-3 0.5 0.7 14.6-0.5 1.1 3.2-0.8 2.3-0.7 3.1 17.7 0 0.3 0.7 3.6 9.6 7.7 1.3 1-5.7 4.3-0.8 0.6z" id="60614" name="60614">
  </path>
  <path d="M532.9 206.7l0.7 0 0-1 5.5-0.1 2 0 0.1 0.5 0.6-0.6 3.5 0 0 0.6 0.6-0.6 3.5-0.1 2.1-0.1 4.1 0 2.1 0 2.1-0.1 2.1 0 2 1 2.1 0 2.1 0 2-1.1 1 0 1.1 0 2.1 0 0 0.8 0.8 0 0.1-4 1.1 3.1 3.5 0 0.5 1 0.2 0 0-1 1 0 5.6-0.1 0.3 1.1 1.4 0 4.1-0.1 0-1 4.1 0 0 1 2.1 0 8.2-0.2-2-4.1 0.9 0 1 0 0.1 3.1 2.7-0.1 1.7 1 2.4 0 0.4 0 1 0 1.3-0.1 0.1 4.2-1.3 0 0 0.6 1.3 2.9-1 0.7-0.2 0 0 2 1.1 0-1 4.1 0.1 2.1 0.1 4.2 1 0.4 0.1 3.7-1.1 0 0.1 2.1 0.2 0 0 0.4 0.5 0 0.3 0.2 0 1.5-1 0 0.1 2 1 2.1-1 0 0 1.1 1.1 0 0 3.1-0.8 0-0.2 1.7 0.1 2.4 0.1 4.2 1-0.1-1 2.1 0 2.1 0.1 2.1 1 0 0.1 2-1.1 0 0.1 2.1 1.1 2.1 0 2-1 0.1 0 2 1.1 2.1 0.1 1-1.1 0.1 0 1-4.3 0-3.3 0.1-2.2 0-3.4 0.1-3.3-2 0 2-6.2 0.1 0-1.1-4.1 0.1 0.1 1-0.1 0-1.6 0.1-2.5 0-2 0-2.1 0-2.1-1-4 0.1-0.1 0-4.1 0.1-0.1-0.1-4.1 0-6.2 0.1-2.1-0.5 0 1.6-2.2 0-1.2-1-2.8 0-1.6 1.1-0.4 0 0-1-4.2 0.1-4.1 0-1.1 0-2 0.1-1.1 0-2 1.1-1.1 0 0-4.2-0.1-4.1-1 0-0.1-0.8 0.7-0.1 1.5-1.8-1.2-0.4 0-2.8-1.1-0.1 0-2.3 0-1 0.9-0.1 0-1.3-0.2-0.3 0-0.5-0.6 0 0-0.8-0.2-0.1 0-0.6 0.7 0.6 0.3-0.1-0.2-8.2-0.1-4.2-1 0.1-0.1-4.7 1-0.1-1.1-5.6 0-1.8-0.1-4.4-0.1-1.1 1-3.1-0.1-4.1 0-2.8 1-0.5-1.1-4-1.1 0 0-1z" id="60618" name="60618">
  </path>
  <path d="M570.4 421.5l-4.1 0.1-4.2 0.1 0 1.4-4.1 0-3 0.1-1.1 1.2 0-1.5-2.1 0.1-3.6 0 0-1.1-2.3 0-2.3 0 0 1.1-6.2 0.1 0-1-2.1 0 0.1 1.1-4.2 0.1 0-1.1-2.1 0 0 1.2-2 0-0.1-1.1-10.3 0.2 0.2 8.3-4.3 0-0.2-8.3 0-5.4-0.1-1.3-0.1-6.7-0.1-3.1-0.2-6.2 0-2.1-0.2-8.3-0.4-16.5-1-16.5 1.1 0 3.6-0.1 8.3-0.2 4.2-0.1 2.1-0.1 2.1 0 4.2-0.1 2-0.1 0 1.1 4.2 0 6.2-0.1-0.1-1.1 4.2-0.1 1 0 0 0.9 1 0 0.1 0.2 2-1.1 2 0 2.1-0.1 0 1.1 2.1 0 4.1-0.2 1.1 3.2 0.1 4.2-1 2.4 0.1 1.2 2 0 0 0.5 0.1 4.3 0.1 1.5-0.9 0 0 1.2 0.9 0 0.1 6 0.1 3.5 0 2.1 0.1 2 0 1.5 0.1 4.5 0.1 2.3-4.2 0.1 0 5.1 4.3 0 0 0.3-2.4 0.5-5.8 0.4 0 0.6 0 1.4 8.2-0.1 0.1 2.1-1 0 0 2 1 0 0.2 4.2 0 2 0.2 6.2z" id="60624" name="60624">
  </path>
  <path d="M614.2 73.6l4.9 0.1 0.9 0 4.9 0.1 0.2 0-6.4-7.2-0.2-0.9 7.7-0.1 1.3 0 1.2-0.2 8.5-0.2 0.4 1.2 2.6 7.6 1.7 4.8 1.7 4.8 1.7 5 0.4 1.2 2.2 4.5 2.5 5.3 1.1 2.4 1.3 6.3 0.2 0.8 0.8 4.2 0.6 4.1 0.6 4.5-2.5 0 0-1.1-0.3-0.3-0.5-0.2-1.3 0-0.3 0.1-0.2 0.3-0.1 1.3-1.1 0-2.1 0-2.1 0-2.1-0.8 0 0.9-2.1 0-2.1-0.9 0.2 0.9-4.3 0.1-1 0 0-2-1.1 0 0.1 2-2.5 0.1-1.1 0-1.7 0 0-1-4.6 0.1 0 1.1-0.3 0-2.8 0-1.9 0.1-1.8-0.9-0.9-4-1.1-0.1 0-0.4-0.1-2.9-0.1-5.7 1.1-0.1-0.1-0.4-0.7-2.1 1.3 0-1.9-5.5 0.2-2.8 0.4 0 0.5-8.4-0.4 0.1-0.3-2.6 0.9-0.6 0-6.2 0-6.4z" id="60626" name="60626">
  </path>
  <path d="M514.3 497.5l24.6-0.5 0.3 17.9 0.1 4.5 16.4-6.9 0-0.9 0-1.4 2-0.6 14.4-6.5 0 1 0 1.8 16.4-6.9 12.7-5.3 0 5.9 0.1 4 2.8-1.1 0 1.1 1.3 7.3-3.4 0.9 1.3 3.3-0.8 0.7 1 4.3 0 1.1 1.2 11.3 0.1 4.1-1 0.1 0 0.9 1.1 3.2 0.1 4.1 0 4.1 1.2 2 0.1 2.1 0.1 4.1 0 4.5-1 0.1 0.1 6.8-1 1.1 2.1-0.1 0.1 4.1-1.1 0.1 0 4.1-0.8 5.1-0.9 3.2-3.2 0.1-2 0 0 1.1-4.1 0.1-4.1 0.1-4.2 0.1 0-0.2-1 0.2-3.1 0.1-6.2 0.1 0-1-2.1 0-2 0.1 0 1-4.2 0.1-6.1 1.5-0.1-2.4-4.2 0.1-0.3 0 0 1.1-7.9 0.2-4.1 0-4.2 0.1 0-1.1-1.1 0.1-3.1 0 0.1 1-4.2 0.1-4.1 0.1-4.2 0-2 0-5.8 0.1-0.3-1.1-0.4 0.1-3.9 0-2.2 0-0.8 0-1.3-3.5-0.1-4.7-0.1-4.5-0.1-3.8-0.2-8.3-0.1-8.2-0.3-12.5-0.1-4.1-0.1-3.6 0-0.5 0.1-0.9 8.3-3 0-0.3-0.1-4.5-0.1-3.6-0.3-24.5z" id="60632" name="60632">
  </path>
  <path d="M531.9 156.9l0.1 8.5 0.2 8.1 0.2 8.3 1 0 0.1 4.2-0.5 0 0.5 3.1-1 0 0 1 0.1 1.1 1-0.1 0.2 7.3 0 4-1 0.1 0 0.6-1.5 3.6-1.6 0.1-2.3 0-2.8 0-2.5 0.1-2.5-0.8 0.1 0.8-4.7 0.1-0.9 0 0-1.1-3.9 0.1 0.1 1.1-4.1 0-1.6 0-4.6-3.7-0.2-0.1-0.3 0.5 0.1 3.4-4.1 0.1-2.2-1.1-4.6 0.2 0 1-5.8 0.1 0-1-8.3 0.1 0 0.6-4.2-0.5-4.2 0 0.1 1.1-2.1 0 0-1-6.2 0.1-0.1-3.2-1 3.2-5.1 0.1-2.1 0-2.1 0.1-6.2 0.1-1 0-1 0-6.2 0.1-0.1-3.1-0.2-2.2 0.3-3.7 0.1-6.5-0.1-2.1-2.1-1-1 0 0.2-15.4 1.1 0 0-1.5-2.1-0.9 0.3-0.9 0.9-4.9 0-6.4 1.1 0 0-0.7 0-1.2 7.1 0 9.3 0 6.2-0.1 2 0 8.2 0 6.5-0.2-4.2-3 8.9-0.2 6 2.4 0.5 1.5 2.6 6.4 1.7-0.1 4.8-7.4 2.7-0.9 4.5 0.1 1.9 2.1 6.8 1.8 3.5 3 0.3 5.4 4.2-7.9 1.6-2.6 9.4-16.7 5.4-0.1 0.3 11.9-9.6 0.1 0.1 4.7 9.6-0.1z" id="60630" name="60630">
  </path>
  <path d="M668.3 354.5l0.3 8.4 1.4-0.1 0 1.6-1.5 0 0 0.9 0 4.8-1.1 0-0.7 0-6 0.1-3.9 0.1-4.1 0-0.6 0.1-2.7 0-5.6-0.2-1 0.7-4.4-0.4-0.1-2.3-2.8-1.5 0-1 0-1.1 0.9-2.2-1 0 0-2-0.1-2.1 0-4.2-0.1-1.9 0-2.2 0.8-2.1 0-1 0-1 0-2.1 0-2.1-1-2-0.1-2.1 1.7 0-1.7-1.5 0-0.6 1.1 0.1-0.2-6.3-0.2-8.2-1 0-0.1-5.1 0-0.1 1.4-1.2-1-2.1 0.4 0-0.9-3-0.6-1 0.7-2.6-0.4-1.5-0.2-1.4-0.9-6.8 0.2-1.3 1.1 1.2 5.8 9.1 0.4 1.4 1 3.1 4.6-0.8 4.1 3.4 2.7 8.3 1.6 0 0.7 0 1.9-5.1 2.1 2.6 0 0.3 4.1-0.1 2 2.1 0-1.7 2.1 0.2 0 0.4 0 1 0.1 2.1 0 0.3 0 2.9 0 2.6 4.6-1.3 3.7 3.6-6.9 0.1-1.2 3.2 0 3.1 0.1 2.1 0.1 2.7 0.3 7.9 0.1 3.7 0 1.1z" id="60642" name="60642">
  </path>
  <path d="M622.9 155.7l1-0.1 0 1.1 2-0.1-0.1-1 4.1-0.1 2.9-0.1 0.3 2.2 1.1-0.1 3.8 0 0-2.2 1.2 0 2.4 0 2.7-0.1 0.1 4.2 1-0.1-0.1-4.1 2.2-0.1 4.6-0.1 1.2 0 1.2 0 1.2-0.3 1.3-0.1 3.9-0.8 0.2 0.7 2.8 9.7 0.1 0.3 0.7 2.3 1.5 3.3 5.7 12.8 0.9 1 1.9 2-6.7 1.6 1.5 8.4-0.5 0.1-3.5 0.4-1 0 0 2.2 0 1.9 0.1 2.1 0 2.1-2.2 0-5.9-0.9 0 1-0.7 0-1-2-2.9-6.2-0.9 0 1.6 8.3-4.3 0.1-2.4 0-3.4 0.1-3.3 0-1.7 0.1-3 0-2.6 0-2.6 0.1-5.3 0.1-3.5 0.1 0-0.5-3.8-0.1 0-3.5-1.3 0-0.1-4.1 1.3 0-1.3-3-0.1-1.2 1.3 0-0.1-3.3-1.2 0-0.1-0.8 0-1.1 1.2-3.1-1 0 1-0.8-1.3-3.3-0.1-2 1.3-0.5-0.2-5.8-1.2 0-0.1-2.1 2.6 0-1.9-2-0.7 0-0.2-9.1 0-0.2 0.1-2.6 7.9-0.6 0.4-0.1z" id="60640" name="60640">
  </path>
  <path d="M868.6 724.4l-12.3 7.4-2.6-3.4-0.7-2.4-0.3-3.1-2.7-0.7-0.2-8.3-0.3-16.5-0.2-8.9-1-2.5-0.8-0.7-10.6-4.2 0 1-6.1 0.2-1-1-0.1 0-2.1 0-0.9 0-2.1 0-2.1 0.1 0 1-4.1 0.1 0-1-2 1-1 0-1.1 0 0-1-2 0.1-4.1 0-2.1 0.1-8.2 0.1-4.1 0.1-1.1 1-1-1-2.1 0.1-2 0-1 0.9-3.8 0.2 0-1-1.4 0-8 0.1-0.4 0 0-0.4-2.8-2.7 0.8-1 0.5-8.2-2.7 0-0.1-2.1 3.8 0 0.1 2.1 0.6 0 2-0.1-0.1-3.2-1.9 0-0.1-0.9-0.6 0-0.1-2-1.1-2.1 0-2.1 1.1 0-0.1-2-0.1-4.2-1.3 0.1-0.1-2.1 0-1.9-5.6-0.1 1.7-0.2 2.6-0.1 1.3 0.1 0.2-6.1 1.1 0 0.2-2-0.1-4.2-1 0-0.1-2 1.1 0 0-2.1 0.3 0 2.1-4.3-0.5-6.1 1.3-6.1 8.3 1.9 7.2-2.1 0.3-1.8-0.5-6.8 1.9 4.2 3.3 3.6-0.2 0.7-0.2 0.7-0.6 2.5 10.5 11.9 0.9 1.1 4.6 5.5 5.1 6.1 0.1 0.1-0.2 4.7 0 1.9 0 0 1.1 1.3 0.6 0.5 2.5 2.7 0.7 0.8 2.3 2.3 0.4 0.4 1.1 1.2 1.9 2 7 2.9 4.3 1.7 6.1-3.2 5.3 6.1-6.3 5.6 0.1 0.3 1.9 5.8 0.1 0.3 20.6 8.9 0.7 7.5 2.2 25.3 0.1 1.6z" id="60649" name="60649">
  </path>
  <path d="M705.3 501.9l1.5-0.1 2.9 0 1.3 0 1.2 0 2.1-0.1 3.6 0 1.9-0.1 0.6 0.1 1.1 0 3-0.1 0.1 1 0 1.9 5.8 0 0.7-3 1.8 0 2.1-0.1 9.4-0.3 0.6 1.6 3.1 8.7 1.9 3.1 8.7 14.3 3.1 5 1.4 2.3 6.5 10.7-6.2 3-1.7 0.5-7.4 0.1 0 0.6-1 0.8-7.2 0.1 0-0.6 0-0.8-3.7 0-0.9 0-3.7 0.1 0.1 4.1-1.1 0.1-0.1-4.2-3 0.1-4.1 0.1-2.1 0-2 0.9 0-0.8-4.2 0-0.4 0-0.5 0.1-2.2 0-2.4 0-2.7 0.1-5.5 0.1-1.4 0.1-1.4 0 0-4.1 1.3-0.1-0.1-4.5-1.3 0-0.1-5.7 1.3-2.1-0.4-16.4-0.1-6.2-0.1-5.1-0.1-5.2z" id="60653" name="60653">
  </path>
  <path d="M533.8 124.1l0 1.1-2.7 3 0 3.1 1.1-1.8 0 2.7 1 4.1-2 2.5 0.3 1.5-5.4 0.1-9.4 16.7-1.6 2.6-4.2 7.9-0.3-5.4-3.5-3-6.8-1.8-1.9-2.1-4.5-0.1-2.7 0.9-4.8 7.4-1.7 0.1-2.6-6.4-0.5-1.4-6-2.5-8.9 0.2 4.2 3-6.5 0.2-8.2 0-2 0-6.2 0.1-9.3 0-7.1 0-1 0-0.1-3.2 1.2-1.4 0-0.8 0-1.5 0-1.3-0.2-0.1-0.6-0.1 0-0.5-0.5-0.1 1.1-1.5 0.2-0.1 0.1-6 0.1-3.2-1.2-1.2 0-3.7 1.2 0.2 0.1-1.2-1-3.1-2.1 0 0.1-2.9-1.1-1.2 3.5 0-4.9-7.2 0.9-0.5 12.7-7.9 0.8-1-0.4-0.4-10.6-16.3 13.7 0 1.1 0 1.6 0-0.1-8.1 3.7 0.2-0.1 7.9 6.1 0.1 2.9 7.3 2.1 5.5 1.7 3.1 2.6 1.6 0.3-9.5 0.3-1.4 0 1.4 0.2 0 9.7 0-0.3 8.6-0.2 4.5-0.5 2.2 9.7 6.2 1.8 1 4.3 2.8 1.2 0 3.3 0 0.4 0 2.8 0.1 8.2 0 4.1 0 3.5 0 4.7 0.1 4.1 0 8.3-0.1 2.7 0z m-2.3 16.2l12.3-0.2 2.2 0 2-0.1 0.4 16.7-11 0.2-0.1-4-5.5 0.2 0.1 3.8-9.6 0.1-0.1-4.7 9.6-0.1-0.3-11.9z" id="60646" name="60646">
  </path>
  <path d="M568.3 322.2l-2.6 0-1.8 0.1 0.1 1.1-4.2 0.1 0-1.1-0.2 0-3.2 1.2-0.1-1.2-0.6 0 0 1.2-4.1 0-2.1-1-3.7 0-0.4 0-1.7 0-0.4 0.1 0 1.1-4.1 0.1-4 0 0.2-1.1-0.1-4.2 1.1 0-0.1-3.1-1 0-0.1-1.3 0-0.3 1.1 0-0.1-3.3-1.1 0-0.1-4.4-0.1-4.1 3-0.1-1.6-4.1-1.4 0-0.7-4.1 1 0 0.6-0.1 0-3-1.1 0 0-1.1 2 0-1.1-7.2-1.1-1.1-0.2-8.3 1 0 1.1 0 2-1.1 1.1 0 2.1-0.1 1 0 4.1 0 4.2-0.1 0 1 0.4 0 1.6-1.1 2.8 0 1.2 1 2.2 0 0-1.6 2.1 0.5 6.2-0.1 4.1 0 0.1 0.1 4.1-0.1 0.1 0 4-0.1 2.1 1 2.1 0 2 0 2.5 0 1.7-0.1 0 0-0.1-1 4.1-0.1 0 1.1 6.2-0.1 0-2 3.3 2 3.4-0.1 2.2 0 3.3-0.1 4.3 0-0.2 4.1 0.2 4.2 0 1.4 0.4 6.8 0.2 6.6 5.4 4.5-1.1 0.1-3.2-2-0.9 2.1 0 1.1 0 1 1.1 2-1 0 0 1.1 0 1 1 0-1 2.1 0.1 2.1 0 1.7 0 1.1 2.1 0.1-1 0.9 0 3.4-0.4 0 0.4 0.7 0.1 3.4-1 0.1-0.6-0.1-3.6 0.6 0-0.5-0.1 0-4 0.8 0-0.7-2.1 0.1 0 0.2-0.2 0 0 0.7-1.6 0.1 0-1-0.2 0 0 0.2-3.5 0.9 0-1-0.6 0 0 1.1-2.1 0.1-2.1 0-3.1 0-1 0 0-0.1-2.1-0.9-2 0.1 0-0.1-4.2 0 0 4.2-0.8 0-0.2 10.3-1.1 1-1.3 0.4-5.4-0.6 1.7-9.6-0.9-3.4-0.2-2.2-2.5 0-6 0.1z" id="60647" name="60647">
  </path>
  <path d="M679.1 372.4l0 2.8 0.1 2.5 2.4 0 0.2 5.7 0.1 3-2.5 0 0 1.5 2.6 1.4 0 1.5-2.5 1.5 0.2 5.7-5 0.1 0-1.4-0.9 1.4-2 0.1-2.6 0-0.2-8.7 0-2.9-0.1-3.1-0.2-8.3-0.1-1.3-1.9 0-0.1-3.8 0.8 0 1.1 0 5.6 0 2.4 0 0.1 2.3 2.5 0z" id="60661" name="60661">
  </path>
  <path d="M436.2 324.4l-8.3 0.2-6.6 0.1-1.7 0-0.4 0-8.8 0.2-3.1 0-6.2 0.1-8.3 0.3-2 0-2.1 0-4.1 0.1-8.2 0.2-7 0.2-1.6 0 0-5.6 0-2.7-0.1-6.6 0-0.7-0.5-17.6-0.2-8.9-0.1-2.5 0.1-3.7-0.2-6.2-0.1-3.6-0.2-8.2 6.1-0.2 8.3-0.2 2-0.1 0.1 1 2 0 2.1-1 0 1 5.6-0.1-0.1-1 0.7 0 0.7 0 1.3 0 2.1 0 1.2 6.8 1 0.2 0.1 0.9 0 0.3 1 0 0.1 4.1 1.1 3.1 2.1 0 1 1 1.1 0-0.1-1.1 2.1-1 1-0.1 0.1 1.1 7.2-0.1 0.1 1 2 0 0-1.1 8.2-0.1 0 1 0.2 8.4 2 0.3 6.3-0.5 0.3 8.3 0 2.4 0.1 1.8-1.1 0 0.3 11.8 1 0 0 0.5 0.1 4.2-1.3 0 0 4.1 0.2 6.8 1.4 0 0 1.5z m-3.2-49.5l-4.1 0-0.1-1 4.2-0.1 0 1.1z" id="60707" name="60707">
  </path>
  <path d="M635.5 853.6l1-3.6 7.5-0.2 1.3-0.1 0 4.2 0.3 12.1 2.8 0.1 2.2 0 1.9 0 2.4 0 2.4-0.1 2.7 0 2.1-0.1 2.1 0 11.3-0.3 3.1 0 0.1 4.1 0.1 4.1 0.1 4.2 0.1 4.1-9.8 0.2 0.1 5.6 0.3 8.4 9.7-1.1 7.7 0 2.6 0 6-0.1 1.1 0 10-8.1 0.6-0.5 5-1 3.2 1.4 2.6 4.6 9.8-0.1 3.1 0 5.2 0 16.3-0.6 0.4-0.1 5.4 0.7 1 0 5.2 8 2.3 0.5 7.3-0.6 7.3 11.4 2.3 5 1.5 8.3 0.2 0 0.1 16-13.5-6.7-2.9-0.7 0 0.4-16.4 0.1 0-8.8-24.5 0-3.5 0-4.8 0 0 0.8 0 0.2 0 8 0 3.6 0 4.2 0 8.3 0 8.1-6.1 0.1-6.2 0-13.2 0.1-7.2 0-8.2 0-4.3 0-8.8 0-0.6-3.2-2.6-3.9-2.6-2-6.2-6.6-2.7-2.5-1.2-0.9-3.1 0.1-0.1 0.4-1.4-1.5 0.4-1.9 0.2-2.9-0.5-17.1-0.1 0-14 0.3 1.7-2.3 8.7-2.9 3.4-2.1 12.3-4.4 4.4-4.5 1.6-0.8-1.7 0.1-15.3 0.6-0.2-7.1-2.3 1-1.8 0.8 0.1-3.6-4.2 0.3-0.2-8.1-4.1 0.1-4.1 0.1-2.5 0 2.1-7.7 1.3-4.6 1.2-4.2 1.5-5.2 2.2-7.9z" id="60827" name="60827">
  </path>
  <path d="M430.6 156.8l-7.2 0-8.5 0.1-14.3 0.2-1.5 0 0 1.3-10.6 0-1.5-0.3-0.1 0.9-1.4 0.5-3.1 0.4-0.1 2-0.8 0.1 0-1.1-3.3 0.1-4.2 0.2-2.3 0.1-1-1-1.2 1.5-7.4 0.2-0.8 0-6.5 0.1-2-1.4-1.2-3.1 3.3-2.6 8.3-0.4 0.4-0.4 7.6 0.8 0.1-0.7-10.4-1-11.9 0.5 0 8.6 0 1.5 0 0.5-1.5-1.5-6.8-0.7-0.1 0.9-8.2 0.3-0.1-0.2 0-8.4-16.8 0.3-0.6-2.6 1.2-4.6 0.6-1.6 0.3-1 0-0.4-0.2-0.6-0.2-1-0.2-0.5 2.1 0.8 13.7 1.9 7.7 1.6 9 1.8 12.6 2.3 9.9 1.9 0.5-5.2 0.2-1.7 0.6-6.1 0.2-1.6 0.2-1.9 0.2-2.1 0.1-1.5 1.2-8 0.1-4.1 0-4.1 0-4.2 0.1-4.4 0-4.1 0.3-2.7-0.3-0.3 0-0.4 0-0.6 0.1-8.1 2.2 0 0.4 0-0.5-1.3-0.1-7-1-1.2-0.9-7 8.2-0.3 4.2-0.1 4.1-0.1 6.6-0.2 1.7-0.1 0 2.6-0.1 5.7 0 4.1-0.1 4.1 0 8.3-0.1 4 0 4.2-0.1 6.8 11.8-0.1 0.5 3.5 4 0 0-2.2 2.7 0 2.7 0 4.7-0.1 0.7 1.1 4.9 7.2-3.5 0 1 1.2 0 2.9 2.1 0 0.9 3.1 0 1.2-1.2-0.2 0 3.7 1.2 1.2-0.1 3.2-0.1 6-0.2 0.1-1.1 1.5 0.5 0.1 0 0.5 0.6 0.1 0.2 0.1 0 1.2 0 1.6-0.1 0.7-1.1 1.5 0.1 3.2z" id="60631" name="60631">
  </path>
  <path d="M774.1 751.8l0.3 12.8-0.1 11.8-1.7 4.9-2.1 0 0.4 2.7-8.2 7.8-2.2 4.4-8.6 20-5.6 14.1-0.5 3.1-0.1 1.6 0.4 16.2 1 5.3 1.6 3.3 18.5 28.8 6.9 10.7-7.3 0.6-2.3-0.5-5.2-8-1 0-5.4-0.7-0.4 0.1-16.3 0.6-5.2 0-3.1 0-9.8 0.1-2.6-4.6-3.2-1.4-5 1-0.6 0.5-10 8.1-1.1 0-6 0.1-2.6 0-7.7 0-0.2-6.8 0-3.6-0.1-2.7-0.1-4.1-0.1-4.2-0.1-4.1-0.1-4.1-0.2-8.3-4.2 0.1-14.4 0.2-1.9 0.1 2.9-2.2 0-6.1 0.7 0 8.4-0.1 0.4 0 0.1 4.1 3.8-0.1-0.1-2 4.1 0 0-2.2-0.1-4.1-1.2 0-4.4-12.2 5.3-0.1-0.2-8.3-1.1 0-0.2-6.8 1.1 0 0-1.4 0-1.4-1.2-6.8-1.1 0-0.1-4.1 2.1-0.1-0.1-4.1-1 0-0.1-4.1 1 0-0.1-4.1-1.1 0-0.1-7.2 1 0 0-1.1 0-1-1 0-0.2-7.2-0.2-8.3 1.1 0 0-2.1-1.1 0.1-0.1-5.7-0.2-8.6-1-0.2 2.1 0 2 0 4.1-1.1 4.1-0.3 0 1.2 4.1-0.1-0.2-8.2 2.2-1.2 0.2 9.4 2.7-0.1 1.3-2.4 4 1.4 0-3.1 2-0.1 0.1 4.1 4.9 0-0.4-16.6 1.5 0 0 4.1 0.3 12.5 0.3 5.8 0.6 2.5 0.7 2.5 0.9 1.6 3-0.2-0.2-11.2 2.7-0.1 2.1-1.2 2 0 0 1.1 4.1-0.1 0-1.1 8.2-0.2 8.2-0.2 2.1 0-1.3 7.8 9.6 0.1 0-0.3 0-0.2-1-0.1-0.1-6.4 0.9 0 2-1.1 2.1-0.1 2.1 1.1 2-1.1 3.2-0.1 8.5-0.2 2.5 3.5z" id="60628" name="60628">
  </path>
  <path d="M693 397.8l4-0.1 5.3-0.1 2.7-0.1 2.9-0.1-0.1-2.8 2.4-0.1 3.9-0.1-0.2-5.7 7.2-0.1 0.3 17.3 0.1 3.2 0.1 6.7 1.6 0.4 2.3 0.7 13.6 3.6-1.1 31-2.2 1-11.4-0.2-3.7-11.6-3.6 0.1-2.6-5-0.7-0.9 0 0.6-2.5 0-0.3 0-2.5 0-1.4 0.1-1.5 0-2.5 0.1-5.2 0.1 0-4.1-0.3-12.2-3.8-0.2-2.9 0 1.3-5.8 0.1-5 0.8 0-0.1-5.3 0.1 0-0.1-5.4z" id="60605" name="60605">
  </path>
  <path d="M706.9 650.4l0.1 8.3 0.1 4.3 0.1 3.9-2.8 0.1-1.3 0-1.4 0-2.8 0.1-2.9 0.1-1.2 0-6.1 0.1-6 0.2-0.3 4.1-0.1 0-1.4-2.7-2.5-1.7-2.2 0.2-2 0.1-2 0-2.1 0.1-4.1 0-4 0.1-4.1 0.1-0.1-3.9 1-0.1-0.1-4.1-0.1-7.2-1.1 0 0-1 0-4.1 1-0.1-0.1-4.1-1 0 0-1.1 1 0-0.1-3-1 0-0.1-4.1 0-1 1-0.1-0.1-3.1-1 0-0.1-4.1 0-0.5 1.1 0.1-0.1-3.7-1 0 0-0.6 1 0-0.1-2.4-1 0 0-1.1 0-1.1 1 0-0.1-7.2-1.1 0 0-1 0.9-6.2-1 0 0-1-0.1-4.1 1-0.1-0.1-4.1-0.1-6.3-1 0.1 0-1.5 4.1-0.1 0-0.5 2-0.1 2.1 0 4-0.1 4.2-0.1 8.1-0.1 0 0 4.2-0.1 4.2-0.1 2-0.1 4.8-0.1 4.7-0.1 4.9-0.1 0 0.8 0.1 3.3 1.3-0.1 0.1 4.2 0.1 4.1-0.2 4.2-1.1 0 0.1 4.1 1.3 0-0.2 4.1-1 0.1 0 1.1 0 7.2 0.4 11.6 0 0.3-0.1 4.6 0.2 8.2 0.3 0 0 4.1 0 4.1z" id="60621" name="60621">
  </path>
  <path d="M691.7 380.5l-0.1-5.7 2.5-0.2 2.5-1 2.5 0 2.6 0 1.9-1.2 2.7-1.8 1.5-0.2 2.8 0.1 3.8 0.7 4.9 0.3 6.4 0.3 0 0.5 0 0.3 1.7 0.2-0.3 5-0.1 1.1-0.1 1.8-0.2 1.8-5.6 2.7 0 3.4-7.2 0.1-3.6 0-0.2 0-2.4 0.1-0.1-2.9 0.1-5.4-1.5-0.1-1.6 0-2.8 0.1 0.1 2.9-2.6 0-0.1-2.9-5 0-2.5 0z" id="60601" name="60601">
  </path>
  <path d="M313.7 209.8l23.8 0.7 11.3-0.2 6.8-0.2 0 0.3 1.5 8.2 0 8.1 4.1-0.2 2.1 0 1.9-0.1 0.2 0 7-0.2 3.4-0.2 2 0 2.1-0.1 2.1-0.1 6.1-0.2 2.1 0 4.2-0.2 4.2-0.1-0.1-2.5 10.2-6.5 6-3.9 6-3.7 12.5-0.3 0-1.1 6.2-0.1 1 0 1 0 6.2-0.1 2.1-0.1 2.1 0 5.1-0.1 1-3.2 0.1 3.2 6.1-0.1 0.1 1 2.1 0 1 2 0.2 6.3-1 0 0.2 8.3 0 2.1 1 0 0.1 4.1-1 0 0.1 2.1 0 2 0.1 2.1 0.1 4.2 1 0 0.1 2 0.1 6.2-1 0.1 0 2 0.1 2.1 0.1 4.2 0 1 1.1 3.1 0.2 4.2 0.1 4.1 0 3.1-1 0-0.1-3.1-1 0 0.1 4.2-1 0 0-1-4.2 0 0.1 1.1-2.1 0 0-1-4.1 0.1-4.1 0 0 1.1-2.1 0 0-0.9-4.1 1-2 0 0-0.9-6.2 0 0 1-2 0.1-2.1 0.1 0-1.1-4.2 0.1 0.1 1-2.2 0 0-1-8.2 0.1 0 1.1-2 0-0.1-1-7.2 0.1-0.1-1.1-1 0.1-2.1 1 0.1 1-1.1 0.1-1-1-2.1 0-1.1-3.1-0.1-4.1-1 0 0-0.3-0.1-0.9-1-0.2-1.2-6.8-2.1 0-1.3 0-0.7 0-0.7 0 0.1 1-5.6 0.1 0-1-2.1 1-2 0-0.1-1-2 0.1-8.3 0.2-6.1 0.1-0.1 0-6.3 0.2-8.1 0.2-2.1 0.1-15 0.4-7.9 0.2-3.2-3.5-2.6-9.6-1.2-4.6-0.8-2.1-1.8-5 2-7.1-0.2-4-0.6-1-5.7-4.1-1.6-3.7 1-3 1.4-3z" id="60634" name="60634">
  </path>
  <path d="M614.2 73.6l0 6.4 0 6.2-0.9 0.6 0.3 2.5 0.4 0-0.5 8.4-0.4 0-0.2 2.8 1.9 5.5-1.3 0 0.7 2.1 0.1 0.4-1.1 0.1 0.1 5.7 0.1 2.9 0 0.4 1.1 0.1 0.9 4-1.2 1-0.7 0 0-0.2-1.1-2.9-0.9 2.2-4.2 0.1-2 1-2.1 0 0-0.9-1 0-1 1-4.2 0 0-1-6.2 0.2 0.1 1-2.1 0-2.1 0.1-2.1-1-4.1 0.1 0 1-2 0.1-2.1 0-2.1-0.9 0.1 1-2.1 0-2.1 0.1 0-1-4.1 0 0 1.1-2 0 0-4.1 0-4.1 0-8.3 0.1-4.8 0.1-3.6 0.1-3.7 0.2-4.3 0.6-8.3 0-1 0.1-7.3 7.4-0.2 4-0.1 3.9-0.1 5.3-0.2 2.7 0 3.7-0.1 4.3-0.2 9.3 0.1 3.1 0.1 2 0 2 0 1.2 0z" id="60645" name="60645">
  </path>
  <path d="M617.3 239.8l6.6 0.9 0-2.1 0.6 0 0 0.3 1.7-0.3 0.3 0 2-0.1 0 1.1 1.7 0-0.1-0.9 0.5 0-0.1-0.2 2.1-0.1 2 0 0.1 1.1 3.4 0-0.1-0.9 0.8 0-0.1-0.3 2.1 0 1-0.1 0.1 1.1 3-0.1 4.1-0.1 0-1 4.5-0.1 1.6-0.1 0.9 2.2 1.3 1.7-0.1-3.9 2-0.1 2.1 0.3 0-0.3 4.1-0.1 2.5 0 1 0 3.1-1.4 0.5 1 1.2-1.8 0.4-0.2 1.5-0.6 0.9 2.1 0.9 2.1 0.3-0.2 2-1.1 6.1-3.1 0.3 0.7 5.7 11.9 0.9 1.8 0.1 0.2 2.3 12.2-3.2 0.3 2.5 4.5 0.2 2.8-6.6 1-0.2 0.7-2.9-0.2-2.4 0-3.4 0.1-0.5 0.1-0.1-1.2-1.8 0.1 0.1 1.1-1.3 0 0-3.2-1.3 0-1.1 3.3-2.8 0.1-0.2 0-0.8-1.1-3.2 0 0.1 1.2-0.7 0-0.1-1-6.1 1.1-1.3 0.1-0.1-1.1-3.6 0.1 0 1-0.8 0.1-0.3-1-3.5 0 0.1 1.1-4.1 0-1.1 0.1-3.1-1-7.1 1.2-1 0-1 0-5.8-0.9-1 1-0.7 0-0.2-6-0.8 6.1-2.8 0-0.1-1-3 0-0.1-1-1.1-2.1 0-2 1-0.1 0-2-1.1-2.1-0.1-2.1 1.1 0-0.1-2-1 0-0.1-2.1 0-2.1 1-2.1-1 0.1-0.1-4.2-0.1-2.4 0.2-1.7 0.8 0 0-3.1z m82.1 45.1l-2.2 0.7-3.3 0.8 0.5-1.1-0.6-14.6 2.9-0.5 2.7 14.7z" id="60657" name="60657">
  </path>
  <path d="M609.9 734.9l-0.4-16.5 10.9-0.2 4.6-0.1 0.5 0 8.2 12.4 1.3 3.9 0.5 0.8 4.6 11.6 1.6 4 1.3-0.1 0-0.9 2.1 0.9 2.1 0 2-1 2.1-0.1 0 1 0.2 0 1.8-0.1 2.1-1 0 1 2.1 0-0.1-1 2.1 0 0 1 2.1-0.1-0.1-1 2.2 0 0.6-2.4 3.4-0.2 0 2.5 4.1-0.1 0.1 1.1 2-0.1 1 0.2 0.2 8.6 0.1 5.7 1.1-0.1 0 2.1-1 0 0.1 8.3 0.2 7.2 1 0 0 1 0 1.1-1 0 0.2 7.2 1 0 0.1 4.1-1 0 0.1 4.1 1 0 0.1 4.1-2.1 0.1 0.1 4.1 1.1 0 1.2 6.8 0 1.4 0 1.4-1.1 0 0.2 6.8 1.1 0 0.2 8.3-5.3 0.1 4.4 12.2 1.2 0 0.1 4.1 0 2.2-4.1 0 0.1 2-3.8 0.1-0.1-4.1-0.4 0-8.4 0.1-0.7 0 0 6.1-2.9 2.2 1.9-0.1 14.5-0.2 4.1-0.1 0.2 8.3-3.1 0-11.3 0.3-2.1 0-2.1 0.1-2.7 0-2.4 0.1-2.4 0-1.9 0-2.2 0-2.8-0.1-0.3-12.1 0-4.2-1.3 0.1-7.5 0.2-1 3.6-2.4-0.7 1.2-2.9-5.4 0.1-1.4 0.1-2.3 0-3.3 0.1-2.9 0.1-6.4 0-2.1-0.1 1-1.2-0.4-15.2 1.1 0.1-0.1-4.2-6.2 0.1-2.1 0-0.1-4.1 6.1-0.1 1-1-0.1-7.2 1.1 0 0-1.1-1.1 0-0.2-7.2 1.1 0-0.1-2.6 0-1.6-1.1 0.1-0.1-4.1-1 0 1-1.1-0.1-3.1-0.3-12.4 1.1 0-0.1-4.1-1.1 0-0.3-12.4 1.2 0-0.2-8.2-0.2-8.3-0.3-9.8-0.1-6.7z m69.4 160.3l-9.7 1.1-0.3-8.4-0.1-5.6 9.8-0.2 0.1 2.7 0 3.6 0.2 6.8z" id="60643" name="60643">
  </path>
  <path d="M751.9 816.2l-1.9 6.4 1.1 0.9 3.9-9.6 0.3-3.7 3.6-8.4 4.2-6.4 7.6-8.8 5.3-3.4 12.3 25.2 0.4 5.8 0.2 19.7 20.5 0.7 0.2 7.4-0.2 34.6 3.3-1.1 4.8-5.6 0.4-0.8 2.6-0.8 2.2-2.3 7-5 0.7-2.8 3.9-0.3 7.5 0.2 1.4 0 7.3 0.3 5.5-0.5 1.7-3.4 6.5-12.5 2.2-5.2 0.3-3.2 0.1-8 0-8.2 9.7 0-0.3 37.1-0.1 12.6-0.1 21.3 0 2.8-0.1 20.3 0 0.3-0.1 12.4 0 12.1-0.1 8.6 0 5.7 0 6.2-7.9 0.2-4.7 0-2-1.4-9.3-1.7-5.4-4.8-3.3 0.2-0.1 7.1-6.1 1.1-0.7-0.1-5.6 0-6.2 0-2.1 0-4.3-0.1-8.1-0.1 0.4-17.8-0.5-15.2-24.4-0.2-0.2 0-1.4-8.3-2.4-5-7.3-11.4-6.9-10.8-18.5-28.7-1.6-3.3-1-5.3-0.4-16.2 0.1-1.6 0.5-3.1 5.6-14.1z" id="60633" name="60633">
  </path>
  <path d="M511.8 588l0.9 3 0.5 13.5-0.9 2.8-2.4 0.5-1.4 2.2-0.1 11.1 0.1 4.2 1.1 0 0.1 4.1 0.1 8.3-1 0-0.1 8.6-4.5 0.2-3.6 4.3 0.3 12 8.4-0.2 0.1 1.3-7.9 7.2-4.8 4.2-3.4 0.1-0.2-4.1-16.3-0.3 0 0.7-16.4 0.8-16 0.8 0.1 7.5-0.4 0-2.1 0.1-4.1 0.1-8.2 0.2-9.7 0.3-0.5 0.1-0.1-4.9-4.3 0-0.1-3.5-4.1 0.2-0.1-1 0.3-11.5-0.6 0.1-0.1-4.2-0.3-4.1-0.9-2.3-1.3-1.8-3-3-1.7-3.5-0.4-3.3 0.7-3.9 5.6-8.8 0.2-2.4-0.2-6.2-0.2-6.2-0.1-4.1 0-0.2-0.2-6-0.1-2.2-0.1-4.2-0.1-4.1-0.1-3.4 0-1.1-0.3-4.1-0.3-1.3-0.3-3.5 8.9-3.8 10.1-4.5 0.1 2.7 2.3-0.6 4.6-1.3 8-3.3 0-4 32.4-13.7 0-0.4-0.1-7.2 4.8-1.9 1-0.5 9.5-0.2 1.5 0.5 4.1-0.2 2.7 0.1 6.7-2.9 0-0.5 2.5-1.1 0 0.5 0.1 3.6 0.1 4.1 0.3 12.5 0.1 8.2 0.2 8.3 0.1 3.8 0.1 4.5 0.1 4.7 1.3 3.5 0.8 0 2.2 0z" id="60638" name="60638">
  </path>
  <path d="M534.3 273l-0.1-4.2-7.8 0.1-1.6-4-1.2 0 0.2 0.5 1.4 3.6-1.4 0 0.1 3.1-2 1.1-2.1 0.1-2.1 0-2.1-0.9-2 0.1-0.1-3.3-1.1 0-1 0.1 0.1 4.1-2.4 0-0.3-12.4-1.8 0-0.8 8.3-0.9 4.2-4.1 0.1-0.1-2.1-1.1 1.1-7.2 0.1-8.3 0.1-8.3 0.2 0 1-4.1 0.1 0-1-3.2 0 0-3.1-0.1-4.1-0.1-4.2-1.2-3.1 0-1-0.1-4.2-0.1-2.1 0-2 1 0-0.1-6.3-0.1-2-1 0-0.1-4.2-0.1-2 0-2.1-0.1-2.1 1 0-0.1-4.1-1 0 0-2.1-0.2-8.3 1 0-0.2-6.3-1-2-0.1-1.1 4.2 0 4.2 0.5 0-0.6 8.3-0.1 0 1 5.8-0.1 0-1 4.6-0.2 2.2 1.1 4.1-0.1-0.1-3.4 0.3-0.5 0.2 0.1 4.6 3.7 1.6 0 4.1 0-0.1-1.1 3.9-0.1 0 1.1 0.9 0 4.7-0.1 0-0.8 2.4 0.8 2.5-0.1 2.8 0 2.3 0 1.6-0.1 1.5-3.6 0.1 3.6 0 1 1.1 0 1.1 4-1 0.5 0 2.8 0.1 4.1-1 3.1 0.1 1.1 0.1 4.4 0 1.8 1.2 5.6-1.1 0.1 0.1 4.6 1 0 0.1 4.2 0.2 8.2-0.3 0.1-0.7-0.6 0 0.6 0.2 0 0 0.9 0.6 0 0 0.5 0.2 0.3 0 1.3-0.9 0.1 0 1 0 2.3 1.1 0.1 0.1 2.8 1.1 0.4-1.5 1.8-0.7 0.1 0.1 0.8 1 0 0.1 4.1 0 4.2-1 0z" id="60641" name="60641">
  </path>
 </g>
 <g id="points">
  <circle class="41.63653166666667|-87.96295881666666" cx="135.31" cy="942.54" id="0">
  </circle>
  <circle class="41.649927000000005|-87.65059711666679" cx="663.48" cy="912.23" id="1">
  </circle>
  <circle class="41.676717666666676|-87.76959205000007" cx="462.27" cy="851.59" id="2">
  </circle>
  <circle class="41.703508333333346|-87.8737126166667" cx="286.22" cy="790.93" id="3">
  </circle>
  <circle class="41.73029900000002|-87.96295881666666" cx="135.31" cy="730.24" id="4">
  </circle>
  <circle class="41.74369433333335|-87.59109965000015" cx="764.08" cy="699.89" id="5">
  </circle>
  <circle class="41.77048500000002|-87.65059711666679" cx="663.48" cy="639.16" id="6">
  </circle>
  <circle class="41.79727566666669|-87.69522021666677" cx="588.03" cy="578.41" id="7">
  </circle>
  <circle class="41.82406633333336|-87.72496895000009" cx="537.73" cy="517.63" id="8">
  </circle>
  <circle class="41.85085700000003|-87.73984331666675" cx="512.58" cy="456.83" id="9">
  </circle>
  <circle class="41.877647666666704|-87.73984331666675" cx="512.58" cy="396" id="10">
  </circle>
  <circle class="41.904438333333374|-87.72496895000009" cx="537.73" cy="335.15" id="11">
  </circle>
  <circle class="41.931229000000044|-87.69522021666677" cx="588.03" cy="274.27" id="12">
  </circle>
  <circle class="41.958019666666715|-87.65059711666679" cx="663.48" cy="213.37" id="13">
  </circle>
  <circle class="41.984810333333385|-87.59109965000015" cx="764.08" cy="152.44" id="14">
  </circle>
  <circle class="42.02499633333339|-87.96295881666666" cx="135.31" cy="60.99" id="15">
  </circle>
 </g>
 <g id="label_points">
  <circle class="60617" cx="821.95" cy="769.74" id="60617">
  </circle>
  <circle class="60619" cx="740.68" cy="699.34" id="60619">
  </circle>
  <circle class="60606" cx="686.85" cy="387.53" id="60606">
  </circle>
  <circle class="60604" cx="699.68" cy="394.81" id="60604">
  </circle>
  <circle class="60602" cx="697.35" cy="383.32" id="60602">
  </circle>
  <circle class="60603" cx="699.58" cy="389.02" id="60603">
  </circle>
  <circle class="60654" cx="688.71" cy="363.49" id="60654">
  </circle>
  <circle class="60660" cx="639.29" cy="138.49" id="60660">
  </circle>
  <circle class="60623" cx="551.02" cy="462.58" id="60623">
  </circle>
  <circle class="60636" cx="632.2" cy="627.15" id="60636">
  </circle>
  <circle class="60620" cx="659.43" cy="706.23" id="60620">
  </circle>
  <circle class="60610" cx="687.5" cy="336.48" id="60610">
  </circle>
  <circle class="60644" cx="480.62" cy="392.18" id="60644">
  </circle>
  <circle class="60106" cx="174.3" cy="204.52" id="60106">
  </circle>
  <circle class="60659" cx="568.65" cy="139.53" id="60659">
  </circle>
  <circle class="60616" cx="703.32" cy="468.77" id="60616">
  </circle>
  <circle class="60637" cx="743.64" cy="616.66" id="60637">
  </circle>
  <circle class="60629" cx="559.71" cy="628.33" id="60629">
  </circle>
  <circle class="60651" cx="521.12" cy="339.92" id="60651">
  </circle>
  <circle class="60622" cx="607.29" cy="339.25" id="60622">
  </circle>
  <circle class="60639" cx="485.36" cy="298.24" id="60639">
  </circle>
  <circle class="60655" cx="570.24" cy="807.88" id="60655">
  </circle>
  <circle class="60615" cx="749.12" cy="567.51" id="60615">
  </circle>
  <circle class="60652" cx="555.47" cy="694.81" id="60652">
  </circle>
  <circle class="60625" cx="581.38" cy="180.64" id="60625">
  </circle>
  <circle class="60656" cx="360.43" cy="170.57" id="60656">
  </circle>
  <circle class="60018" cx="253.89" cy="123.83" id="60018">
  </circle>
  <circle class="60607" cx="652.89" cy="397.08" id="60607">
  </circle>
  <circle class="60608" cx="627.33" cy="461.62" id="60608">
  </circle>
  <circle class="60609" cx="655.06" cy="544.02" id="60609">
  </circle>
  <circle class="60611" cx="712.11" cy="357.33" id="60611">
  </circle>
  <circle class="60612" cx="601.24" cy="387.46" id="60612">
  </circle>
  <circle class="60613" cx="652.57" cy="221.43" id="60613">
  </circle>
  <circle class="60614" cx="663.45" cy="294.45" id="60614">
  </circle>
  <circle class="60618" cx="573.22" cy="238.25" id="60618">
  </circle>
  <circle class="60624" cx="539.53" cy="389.94" id="60624">
  </circle>
  <circle class="60626" cx="631.01" cy="98.66" id="60626">
  </circle>
  <circle class="60632" cx="557.83" cy="551.08" id="60632">
  </circle>
  <circle class="60630" cx="472.13" cy="180.02" id="60630">
  </circle>
  <circle class="60642" cx="652.36" cy="342.12" id="60642">
  </circle>
  <circle class="60640" cx="637.7" cy="181.31" id="60640">
  </circle>
  <circle class="60649" cx="793.2" cy="653.65" id="60649">
  </circle>
  <circle class="60653" cx="729.19" cy="527.65" id="60653">
  </circle>
  <circle class="60646" cx="454.3" cy="130.28" id="60646">
  </circle>
  <circle class="60647" cx="576.57" cy="296.75" id="60647">
  </circle>
  <circle class="60661" cx="674.34" cy="383.68" id="60661">
  </circle>
  <circle class="60707" cx="397.7" cy="299.27" id="60707">
  </circle>
  <circle class="60827" cx="692.62" cy="926.42" id="60827">
  </circle>
  <circle class="60631" cx="389.65" cy="134.6" id="60631">
  </circle>
  <circle class="60628" cx="713.45" cy="810.63" id="60628">
  </circle>
  <circle class="60605" cx="709.56" cy="419.42" id="60605">
  </circle>
  <circle class="60621" cx="682.16" cy="625.33" id="60621">
  </circle>
  <circle class="60601" cx="715.12" cy="379.93" id="60601">
  </circle>
  <circle class="60634" cx="425.26" cy="241.68" id="60634">
  </circle>
  <circle class="60645" cx="589.11" cy="98.44" id="60645">
  </circle>
  <circle class="60657" cx="651.22" cy="254.12" id="60657">
  </circle>
  <circle class="60643" cx="642.55" cy="795.71" id="60643">
  </circle>
  <circle class="60633" cx="842.17" cy="903.36" id="60633">
  </circle>
  <circle class="60638" cx="460.61" cy="613.34" id="60638">
  </circle>
  <circle class="60641" cx="495.92" cy="236.19" id="60641">
  </circle>
 </g>
</svg>