<svg width="346.811101664" 
    xmlns="http://www.w3.org/2000/svg" baseProfile="full" version="1.1" height="421.285292293">
    <defs>
        <style type="text/css"><![CDATA[polyline,line,rect,path,polygon,.polygon{fill:white;stroke:#000;stroke-width:1px;stroke-linejoin:round;}]]></style>
    </defs>
    <g fill_rule="evenodd" transform="scale(1,-1) translate(-49.6273339946,-584.1612062)">
        <g id="zipcodes" class="ZIP name">
            <polygon points="267.435,466.816 267.594,458.846 267.495,458.725 227.055,457.933 226.710,471.255 226.393,472.102 226.919,472.113 226.670,472.842 226.440,482.260 266.948,482.950 266.836,479.532 267.201,474.337 267.435,466.816" id="60647" class="zipcodes"/>
            <polygon points="226.594,472.104 226.393,472.102 226.710,471.255 227.055,457.933 178.379,456.974 177.749,481.246 226.440,482.260 226.670,472.842 226.919,472.113 226.594,472.104" id="60639" class="zipcodes"/>
            <polygon points="178.379,456.974 161.170,456.591 160.493,480.998 177.749,481.246 178.379,456.974" id="60707" class="zipcodes"/>
            <polygon points="243.516,442.067 186.613,440.961 186.181,457.112 243.125,458.240 243.516,442.067" id="60651" class="zipcodes"/>
            <polygon points="213.141,356.675 213.761,330.291 213.824,329.780 214.764,327.197 214.920,322.843 214.143,321.141 214.017,320.535 214.368,307.831 165.616,306.499 164.960,327.042 164.872,333.484 168.558,335.055 205.498,336.024 205.173,350.599 212.162,353.566 212.052,360.306 217.267,360.420 217.197,358.658 213.141,356.675" id="60638" class="zipcodes"/>
            <polygon points="263.590,288.700 264.124,264.400 215.416,263.122 215.520,265.723 214.899,287.539 231.053,288.026 231.051,288.303 236.200,288.560 247.314,288.523 248.293,288.354 259.456,288.529 259.497,288.140 263.590,288.700" id="60652" class="zipcodes"/>
            <polygon points="278.114,581.823 278.277,581.901 278.514,580.824 278.284,580.618 278.352,579.980 278.593,579.726 278.412,579.698 278.311,579.395 278.892,578.684 278.786,578.367 279.010,577.895 278.978,577.327 279.132,577.247 279.055,576.931 279.295,576.702 279.582,575.347 279.898,574.833 280.329,573.466 280.290,573.010 280.864,571.797 280.749,571.731 280.798,571.574 281.520,570.704 281.412,570.609 281.544,570.417 282.295,569.596 282.516,569.064 284.592,566.475 285.497,565.687 285.752,565.900 285.106,565.239 283.823,565.203 283.803,564.466 284.184,563.136 284.396,563.002 283.921,562.907 284.250,561.117 284.627,560.524 284.965,559.588 284.997,558.966 285.321,557.735 286.133,556.344 285.232,556.207 265.018,555.818 264.809,563.370 264.820,563.750 264.959,563.938 263.559,567.975 264.969,568.014 264.819,573.090 264.655,573.415 264.670,579.755 270.742,579.710 268.144,582.524 267.464,583.755 277.345,583.692 277.230,583.325 277.624,582.890 277.749,582.208 278.114,581.823" id="60626" class="zipcodes"/>
            <polygon points="258.097,579.811 264.670,579.755 264.655,573.415 264.819,573.090 264.969,568.014 263.559,567.975 264.959,563.938 264.820,563.750 264.809,563.370 265.018,555.818 240.729,555.168 240.684,563.089 241.011,579.320 258.097,579.811" id="60645" class="zipcodes"/>
            <polygon points="286.177,556.284 286.464,553.788 286.306,553.890 286.131,553.731 286.282,553.095 286.189,552.164 286.363,552.166 286.468,551.694 286.255,550.898 286.617,550.471 286.360,548.234 286.506,548.094 286.549,547.456 286.453,547.267 286.548,547.047 286.459,545.361 287.097,544.435 289.232,542.392 290.131,542.061 290.575,543.142 289.603,540.294 265.642,539.517 265.018,555.818 286.177,556.284" id="60660" class="zipcodes"/>
            <polygon points="289.603,540.294 289.445,539.027 289.487,537.065 289.577,536.425 289.885,535.730 289.676,535.434 291.091,533.991 291.234,533.644 292.257,533.563 292.821,533.241 293.297,533.619 292.845,533.210 293.093,532.628 293.296,528.116 294.230,525.836 295.110,524.444 296.231,523.129 296.135,523.037 295.911,523.283 295.697,523.073 296.032,522.772 296.289,523.065 298.012,521.549 300.553,520.571 302.489,520.029 304.242,519.835 305.060,519.516 305.179,521.323 305.900,523.244 305.714,523.596 305.343,523.617 305.132,523.336 305.190,522.935 305.056,523.327 305.305,523.678 305.762,523.657 305.971,523.189 305.347,521.680 305.114,520.126 305.345,518.359 305.709,517.982 305.897,517.480 305.865,517.114 305.636,516.718 303.230,515.416 302.104,514.094 301.236,513.360 299.970,513.143 298.367,513.492 298.202,512.960 298.316,513.513 297.782,513.830 297.652,514.193 297.835,514.729 298.225,514.851 299.423,514.182 300.668,514.416 301.898,515.411 302.295,516.138 302.243,516.636 301.815,517.032 301.260,517.078 297.401,516.451 296.746,515.999 266.144,515.350 265.557,537.477 265.629,539.504 289.603,540.294" id="60640" class="zipcodes"/>
            <polygon points="266.144,515.350 225.633,514.642 225.055,538.949 265.642,539.517 265.557,537.477 266.144,515.350" id="60625" class="zipcodes"/>
            <polygon points="226.440,482.260 193.874,481.594 192.960,514.033 225.633,514.642 226.440,482.260" id="60641" class="zipcodes"/>
            <polygon points="300.171,500.720 301.621,498.059 304.291,494.578 304.267,494.187 303.742,494.135 303.456,494.901 303.093,495.208 302.322,494.894 301.909,494.968 301.690,495.260 301.035,497.094 301.152,497.259 300.700,498.088 299.434,498.658 298.493,498.749 298.291,498.884 298.427,499.103 298.257,499.108 297.589,500.087 296.989,500.516 296.729,500.389 298.473,498.249 298.413,497.620 298.145,497.404 298.137,497.010 298.867,495.640 299.263,495.394 299.590,494.914 299.763,494.434 299.906,493.081 300.934,491.462 301.068,491.943 301.248,491.911 301.183,491.387 301.991,491.411 302.025,491.227 302.300,491.363 302.697,491.827 302.864,492.427 302.543,492.451 302.556,492.615 302.880,492.487 302.929,493.234 303.138,493.434 303.132,493.731 303.509,493.469 303.890,490.953 304.367,489.532 304.946,488.601 304.835,488.541 305.111,487.052 305.657,485.912 306.497,484.643 306.474,484.267 302.747,484.273 301.798,484.058 301.693,483.721 300.158,483.801 266.948,482.950 266.542,499.142 292.387,499.755 299.370,502.853 300.171,500.720" id="60657" class="zipcodes"/>
            <polygon points="348.177,341.047 348.582,340.987 349.016,340.562 348.670,339.628 348.802,339.555 348.638,337.598 348.825,335.958 349.242,334.643 349.118,334.563 349.784,333.749 350.646,333.022 351.305,332.894 352.135,333.111 352.714,332.914 353.005,332.626 353.097,332.218 352.869,331.328 352.271,330.931 351.868,330.885 349.145,331.141 341.428,331.007 341.346,330.699 340.889,330.556 339.160,330.540 338.855,330.908 326.325,330.681 325.866,329.771 325.097,329.179 324.243,328.816 323.210,328.699 321.937,329.090 320.493,329.869 320.286,330.121 311.112,329.868 310.712,346.456 338.866,347.083 342.994,349.128 343.235,348.757 343.152,348.160 343.248,347.572 344.732,344.367 345.262,343.713 348.177,341.047" id="60615" class="zipcodes"/>
            <polygon points="311.905,297.831 312.063,289.755 300.351,289.503 297.897,289.614 295.875,289.197 287.811,289.000 286.866,329.213 311.112,329.868 311.905,297.831" id="60621" class="zipcodes"/>
            <polygon points="287.811,289.000 283.773,289.182 271.659,289.093 263.590,288.700 262.615,329.202 263.526,328.723 286.866,329.213 287.811,289.000" id="60636" class="zipcodes"/>
            <polygon points="379.854,283.279 344.399,282.487 344.262,284.255 343.917,301.314 344.040,302.518 343.794,314.822 345.191,314.855 347.201,314.607 349.230,313.725 351.955,314.842 354.474,314.966 357.735,315.643 358.803,315.995 359.412,319.345 359.505,319.317 358.880,315.918 354.918,314.467 355.025,313.994 354.065,313.660 353.548,313.195 353.102,311.811 353.181,310.854 353.670,309.911 353.597,309.724 353.280,309.662 353.310,309.500 354.615,309.197 354.706,309.053 354.830,309.286 355.893,309.615 356.024,310.489 355.570,311.233 355.294,311.231 354.695,312.306 354.688,312.970 354.812,313.290 355.267,313.443 355.623,313.335 355.971,312.617 357.581,310.868 358.487,310.213 360.152,307.518 360.542,307.252 360.896,306.593 361.677,305.927 362.861,305.372 363.124,303.616 363.912,302.017 365.421,301.354 366.241,302.227 366.374,299.567 366.233,299.324 365.503,298.971 365.366,298.295 365.777,297.517 366.009,297.538 366.221,297.268 366.283,297.050 366.096,296.909 366.208,296.720 366.734,296.203 367.168,296.499 367.908,295.501 367.801,295.426 367.884,295.162 369.524,293.814 370.219,294.020 370.865,292.901 373.336,291.537 375.304,290.664 376.777,290.722 377.960,291.384 378.946,292.283 379.334,292.224 378.862,292.782 377.136,292.807 378.953,292.807 380.414,291.138 380.361,290.705 381.180,289.693 381.597,289.662 382.057,289.105 379.273,286.807 378.903,285.580 379.492,283.809 379.854,283.279" id="60649" class="zipcodes"/>
            <polygon points="380.055,283.131 382.180,283.079 389.192,279.482 390.139,278.859 390.936,271.904 391.095,271.567 395.574,271.606 391.062,271.426 390.398,271.186 382.772,271.030 382.796,270.457 391.092,270.624 391.883,263.033 391.443,261.474 391.760,261.159 395.003,260.553 395.449,260.081 395.690,249.869 395.247,249.450 395.500,249.153 395.402,249.069 395.172,249.331 394.913,248.779 395.185,248.700 394.850,248.559 394.755,247.129 395.023,246.077 395.349,245.594 395.683,245.526 395.717,244.877 394.598,244.791 394.093,244.548 393.940,244.682 394.012,244.514 393.787,244.288 393.363,244.222 392.623,243.550 392.254,243.015 392.204,242.658 392.325,242.044 393.042,240.441 394.068,239.261 395.160,240.347 392.478,237.529 393.485,236.677 393.949,236.477 394.287,236.447 394.570,236.809 394.487,237.036 394.693,237.105 396.040,235.946 395.524,235.913 394.879,236.580 394.307,236.135 394.684,235.712 395.106,236.066 395.216,235.924 394.760,235.633 395.015,235.348 395.440,235.713 395.505,235.633 395.310,235.447 395.375,235.239 395.716,234.969 395.680,196.171 375.079,196.106 367.019,196.263 346.721,195.966 345.323,242.817 345.178,252.081 345.054,252.234 344.976,253.176 344.427,278.959 344.514,281.242 344.399,282.487 379.854,283.279 380.055,283.131" id="60617" class="zipcodes"/>
            <polygon points="298.172,200.434 298.408,192.354 285.016,192.029 282.183,192.061 281.972,200.068 277.471,199.932 277.024,198.292 276.117,198.539 276.489,199.905 265.877,199.686 264.558,248.197 296.884,248.901 298.172,200.434" id="60643" class="zipcodes"/>
            <polygon points="268.006,442.250 268.200,434.567 276.314,434.744 276.977,410.321 244.363,409.695 243.516,442.067 267.998,442.553 268.006,442.250" id="60612" class="zipcodes"/>
            <polygon points="244.363,409.695 215.877,409.108 215.414,425.317 215.741,425.322 215.598,433.146 215.057,433.238 214.712,440.288 214.515,441.465 243.516,442.067 244.363,409.695" id="60624" class="zipcodes"/>
            <polygon points="215.877,409.108 187.520,408.472 186.613,440.961 214.515,441.465 214.712,440.288 215.057,433.238 215.598,433.146 215.741,425.322 215.414,425.317 215.877,409.108" id="60644" class="zipcodes"/>
            <polygon points="330.056,370.968 330.288,370.376 332.315,367.317 333.745,366.064 334.261,365.374 334.395,364.627 334.240,363.329 334.596,361.762 334.539,361.558 335.597,359.792 335.948,358.884 336.392,358.320 336.803,358.191 338.476,356.696 338.832,355.964 338.866,354.741 339.239,354.136 339.452,354.053 339.927,352.995 340.288,352.602 340.383,352.299 340.241,352.268 340.563,351.461 341.402,350.572 341.715,349.973 342.863,349.533 342.994,349.128 338.866,347.083 310.712,346.456 310.142,370.641 330.024,371.104 330.056,370.968" id="60653" class="zipcodes"/>
            <polygon points="310.142,370.521 311.112,329.868 263.526,328.723 262.615,329.202 261.642,369.634 310.142,370.641 310.142,370.521" id="60609" class="zipcodes"/>
            <g fill_rule="evenodd" id="60666">
                <polygon points="86.171,564.140 86.171,563.986 86.354,563.995 86.353,564.242 86.729,564.012 87.570,564.050 87.531,560.724 88.193,560.757 88.167,561.418 88.455,561.432 88.425,562.095 89.565,562.147 91.134,561.305 90.815,560.885 90.813,560.275 83.481,559.821 80.852,561.724 80.854,562.181 79.482,562.119 79.481,561.661 80.266,561.506 83.228,559.351 84.969,559.431 84.956,558.304 91.635,557.041 95.313,556.019 95.318,555.835 95.668,555.722 95.664,552.283 99.134,552.433 102.003,541.817 102.876,541.855 102.876,538.786 104.653,531.812 102.869,531.749 102.810,527.733 98.822,527.580 98.833,510.192 98.134,510.093 96.298,510.300 90.975,511.177 88.792,511.123 88.820,503.063 79.783,502.857 72.716,504.797 72.730,503.754 70.699,504.412 70.640,507.396 70.282,509.763 68.984,510.450 66.324,511.056 66.324,511.211 64.524,511.467 64.530,506.457 61.060,507.555 61.053,512.167 56.305,513.191 56.159,518.586 54.072,518.585 54.077,520.834 52.386,519.257 51.291,518.005 49.972,518.010 49.965,533.951 49.773,550.450 50.709,550.497 51.136,552.669 51.873,554.845 52.924,556.935 54.138,558.685 57.658,562.269 57.693,560.137 61.752,560.200 61.768,558.850 65.852,558.949 65.852,563.195 71.436,563.335 71.432,567.367 71.814,567.385 71.820,564.649 72.048,564.661 72.052,563.350 76.487,563.533 76.477,567.613 78.075,567.691 80.866,566.696 80.865,566.501 84.205,565.258 86.171,564.140" class="zipcodes"/>
                <polygon points="55.034,563.309 54.998,563.106 54.368,563.218 54.429,559.864 54.772,559.874 53.774,558.724 53.608,566.737 55.022,566.762 55.034,563.309" class="zipcodes"/>
                <polygon points="49.799,555.599 49.695,555.577 49.615,558.556 53.733,558.670 52.131,556.111 49.799,555.599" class="zipcodes"/>
            </g>
            <polygon points="266.542,499.142 266.948,482.950 226.440,482.260 225.633,514.642 266.144,515.350 266.542,499.142" id="60618" class="zipcodes"/>
            <polygon points="330.024,371.104 293.977,370.280 293.346,402.667 322.035,403.273 321.794,402.874 321.999,402.073 322.014,401.317 321.503,400.939 321.309,400.233 321.301,399.590 321.660,398.440 322.884,397.188 323.262,395.206 324.496,392.889 324.536,392.292 324.259,390.344 324.306,389.653 325.104,387.994 325.215,387.427 325.107,386.915 324.641,386.022 324.608,385.395 324.804,385.081 324.927,384.425 325.556,383.252 325.704,381.836 325.974,381.315 326.425,381.436 326.679,381.320 325.996,381.252 326.242,380.307 326.824,379.746 327.123,379.182 328.322,379.549 328.754,380.515 328.747,380.211 328.358,379.460 327.141,379.089 327.200,377.692 327.552,376.392 328.469,375.142 328.481,374.941 328.077,374.507 328.217,373.812 328.649,373.148 329.480,372.898 329.764,372.637 330.022,372.195 330.024,371.104" id="60616" class="zipcodes"/>
            <polygon points="293.346,402.667 293.977,370.280 253.536,369.375 252.467,409.840 293.136,410.711 293.346,402.667" id="60608" class="zipcodes"/>
            <polygon points="305.720,483.866 305.690,483.523 305.361,483.434 305.359,483.281 305.829,483.227 305.980,483.447 305.843,483.219 306.166,482.976 306.303,482.646 306.043,480.662 306.194,479.474 306.562,478.441 306.384,478.345 307.220,476.884 307.149,476.243 307.002,476.308 306.674,475.849 306.929,473.551 307.743,472.524 308.295,472.886 307.349,472.130 308.139,470.618 308.827,470.993 307.824,470.279 308.627,468.923 309.149,469.194 308.244,468.648 308.468,468.144 309.133,467.257 309.592,467.535 308.675,466.808 309.680,465.518 310.186,465.965 309.591,465.352 311.213,463.625 312.605,462.578 313.819,462.308 314.743,462.605 314.852,462.403 314.782,462.136 315.078,462.733 315.079,463.454 314.863,463.718 314.429,463.706 314.838,463.783 315.121,463.480 315.117,462.678 314.789,462.068 314.213,461.720 312.748,461.303 311.398,459.951 311.394,459.765 284.688,459.137 283.844,462.493 283.186,463.489 281.121,465.113 279.550,464.342 278.988,464.501 278.366,466.632 277.704,467.577 275.938,467.028 267.435,466.816 267.201,474.337 266.836,479.532 266.948,482.950 300.158,483.801 301.693,483.721 301.798,484.058 302.747,484.273 306.474,484.267 306.276,483.971 306.301,483.372 306.261,483.972 305.720,483.866" id="60614" class="zipcodes"/>
            <polygon points="118.797,540.470 119.032,542.205 119.711,544.371 119.462,545.602 120.882,545.156 124.687,544.774 146.410,540.607 147.354,550.164 147.975,554.397 148.066,570.431 149.329,570.465 149.327,571.074 149.022,571.065 149.038,575.112 148.076,575.079 148.086,578.523 160.229,578.907 160.100,558.773 161.235,558.799 161.311,559.509 164.804,559.564 164.799,558.822 165.981,558.821 166.131,557.840 166.518,557.843 168.069,557.866 168.081,558.905 173.017,558.961 176.099,554.449 175.910,538.885 154.614,538.587 154.050,537.756 152.648,537.365 144.864,537.071 144.740,536.757 143.510,536.706 142.414,536.689 142.356,536.990 140.624,536.950 140.554,536.696 140.219,536.676 139.214,536.659 139.132,536.914 135.768,536.824 135.656,536.699 135.649,535.701 135.840,535.217 135.240,535.056 135.015,535.216 135.009,536.630 134.760,536.813 127.639,536.615 119.387,536.635 119.520,537.950 118.797,540.470" id="60631" class="zipcodes"/>
            <polygon points="173.448,558.317 180.599,562.887 179.685,563.912 175.012,571.203 182.845,571.217 182.970,575.049 184.735,574.991 184.678,571.211 187.746,571.193 190.240,564.797 190.580,564.999 191.229,563.319 194.030,561.620 194.301,562.077 192.577,563.150 192.634,567.166 197.437,567.125 197.269,561.535 196.955,559.809 204.732,554.959 224.610,554.950 224.700,547.815 226.642,549.067 226.666,547.097 224.858,547.061 225.055,538.949 208.657,538.670 207.524,539.108 205.961,538.098 205.161,539.326 194.836,538.994 175.910,538.885 176.099,554.449 173.448,558.317" id="60646" class="zipcodes"/>
            <polygon points="345.201,249.281 346.721,195.966 332.410,196.719 333.450,194.841 342.320,181.280 339.326,181.113 334.377,180.070 332.267,179.891 316.770,179.686 317.013,180.795 316.905,181.602 316.615,181.994 314.806,183.084 314.795,183.400 313.753,183.376 312.807,183.219 311.268,182.549 310.026,181.333 308.887,179.934 307.548,178.770 307.501,178.418 307.288,178.279 307.025,178.459 306.245,178.322 305.682,177.933 303.555,177.722 301.053,178.118 298.980,178.178 298.800,178.984 296.884,248.901 312.964,249.165 345.213,250.098 345.201,249.281" id="60628" class="zipcodes"/>
            <polygon points="332.709,196.703 346.721,195.966 367.019,196.263 375.079,196.106 395.680,196.171 395.583,163.952 345.913,163.872 318.897,163.614 318.857,169.936 316.283,170.603 317.000,172.574 317.573,174.708 318.414,179.740 332.803,179.925 334.377,180.070 339.326,181.113 342.309,181.279 333.066,195.441 332.410,196.719 332.709,196.703" id="60827" class="zipcodes"/>
            <polygon points="205.161,539.326 205.961,538.098 207.524,539.108 208.657,538.670 225.055,538.949 225.633,514.642 176.743,513.694 176.665,516.441 176.533,517.122 176.764,517.396 176.758,522.765 175.719,522.792 175.910,538.885 194.836,538.994 205.161,539.326" id="60630" class="zipcodes"/>
            <polygon points="102.810,527.733 102.866,528.740 108.906,528.941 108.904,528.656 109.542,528.677 109.541,528.862 109.828,528.872 109.828,528.580 114.371,528.755 114.579,530.173 115.003,531.099 116.062,532.203 117.309,534.061 119.114,536.060 119.387,536.635 127.639,536.615 134.760,536.813 135.009,536.630 135.015,535.216 135.240,535.056 135.840,535.217 135.649,535.701 135.656,536.699 135.768,536.824 139.132,536.914 139.214,536.659 140.219,536.676 140.554,536.696 140.624,536.950 142.356,536.990 142.414,536.689 143.510,536.706 144.740,536.757 144.864,537.071 152.648,537.365 154.050,537.756 154.614,538.587 175.910,538.885 175.721,523.323 163.689,523.166 163.676,522.637 159.852,522.598 159.910,529.561 151.746,529.266 151.725,525.235 150.039,525.174 150.049,528.074 149.664,528.074 149.690,529.188 143.609,528.966 143.605,527.976 139.472,527.872 139.476,528.863 138.070,528.829 138.072,529.936 137.892,529.931 137.894,530.437 135.408,530.367 135.406,529.768 131.325,529.671 131.330,528.669 134.328,528.737 134.318,525.963 135.398,525.987 135.399,524.728 131.306,524.621 131.313,526.656 127.204,526.553 127.184,520.463 135.380,520.690 135.382,512.651 118.073,512.431 119.524,516.016 119.780,518.283 120.306,520.397 120.379,521.332 120.168,523.007 120.750,524.774 120.904,525.741 120.628,526.548 120.202,527.042 119.885,527.237 119.179,527.275 118.143,526.826 116.936,526.016 115.689,526.577 114.932,527.331 114.459,528.135 102.810,527.733" id="60656" class="zipcodes"/>
            <path d="M 264.774,240.117 265.877,199.686 261.290,199.616 261.803,201.770 261.663,207.688 253.418,207.501 253.287,211.657 250.200,211.488 250.270,209.505 249.249,209.489 249.316,207.408 245.266,207.311 245.390,203.303 240.335,203.133 240.304,204.054 240.146,204.050 240.129,204.678 240.282,204.682 240.196,207.189 216.933,206.602 216.668,214.629 232.835,215.152 232.084,239.457 239.196,239.622 239.247,237.597 240.268,237.619 240.433,231.603 248.248,231.740 248.588,231.747 248.544,232.717 248.688,232.753 256.745,232.914 256.546,239.980 264.774,240.117 z M 253.032,223.710 253.275,215.700 256.332,215.760 256.318,216.251 257.230,216.345 257.013,223.784 253.032,223.710 z" class="polygon zipcodes" id="60655" fill_rule="evenodd"/>
            <polygon points="265.642,539.517 225.055,538.949 224.858,547.061 226.666,547.097 226.642,549.067 224.700,547.815 224.610,554.950 237.000,555.072 265.018,555.818 265.642,539.517" id="60659" class="zipcodes"/>
            <polygon points="193.874,481.594 160.493,480.998 160.266,488.974 152.343,488.902 124.712,488.113 123.224,489.687 122.641,490.891 121.837,494.012 121.888,494.845 121.681,495.303 121.212,497.612 120.995,498.404 120.251,500.044 120.281,501.655 120.993,503.838 127.178,504.060 127.177,508.556 117.664,508.271 117.242,509.046 117.097,510.460 118.073,512.431 138.715,512.744 139.434,508.595 139.465,504.666 159.796,505.376 159.776,506.599 170.615,513.502 192.960,514.033 193.874,481.594" id="60634" class="zipcodes"/>
            <polygon points="299.370,502.853 292.387,499.755 266.542,499.142 266.144,515.350 296.746,515.999 296.550,515.167 297.183,514.057 297.113,513.183 297.604,513.134 297.100,513.110 297.009,512.036 297.536,508.500 297.987,506.762 299.370,502.853" id="60613" class="zipcodes"/>
            <polygon points="253.536,369.375 261.642,369.634 262.615,329.202 232.208,328.385 214.457,328.102 213.824,329.780 213.761,330.291 213.141,356.675 217.197,358.658 217.267,360.420 217.032,372.566 229.036,372.858 229.194,364.328 231.154,365.045 231.109,368.887 253.536,369.375" id="60632" class="zipcodes"/>
            <polygon points="253.536,369.375 231.109,368.887 231.154,365.045 229.194,364.328 229.036,372.858 217.032,372.566 216.947,376.641 216.846,376.640 216.795,378.667 216.694,378.665 215.877,409.108 252.467,409.840 253.536,369.375" id="60623" class="zipcodes"/>
            <polygon points="263.579,289.202 263.590,288.700 259.497,288.140 259.456,288.529 248.293,288.354 247.314,288.523 236.200,288.560 231.051,288.303 231.053,288.026 214.899,287.539 214.018,320.413 214.143,321.141 214.920,322.843 214.791,326.899 214.457,328.102 232.208,328.385 262.615,329.202 263.579,289.202" id="60629" class="zipcodes"/>
            <polygon points="313.096,249.207 264.558,248.197 263.590,288.700 271.659,289.093 283.773,289.182 289.980,289.045 295.875,289.197 297.897,289.614 300.351,289.503 312.063,289.755 313.096,249.207" id="60620" class="zipcodes"/>
            <polygon points="351.649,330.950 350.496,330.526 349.910,329.936 349.677,329.215 349.659,328.127 349.410,327.530 350.548,325.204 352.178,323.694 350.984,323.385 351.085,323.225 351.491,323.260 351.344,322.582 351.424,321.373 352.389,318.232 355.408,316.297 357.645,315.634 354.474,314.966 351.955,314.842 349.230,313.725 347.201,314.607 345.191,314.855 343.794,314.822 344.040,302.518 343.917,301.314 343.978,298.753 311.905,297.831 311.112,329.868 320.286,330.121 320.493,329.869 321.937,329.090 323.210,328.699 324.243,328.816 325.097,329.179 325.866,329.771 326.325,330.681 338.855,330.908 338.942,330.664 339.230,330.533 341.148,330.579 341.346,330.699 341.428,331.007 349.145,331.141 351.649,330.950" id="60637" class="zipcodes"/>
            <polygon points="344.399,282.487 344.514,281.242 344.427,278.959 344.976,253.176 345.054,252.234 345.178,252.081 345.213,250.098 313.096,249.207 311.905,297.831 343.978,298.753 344.262,284.255 344.399,282.487" id="60619" class="zipcodes"/>
            <path d="M 320.324,440.135 320.596,439.680 321.477,439.995 321.970,439.906 323.512,443.135 329.924,443.323 330.002,439.873 323.803,439.713 323.829,438.685 331.365,438.967 331.476,438.742 333.162,438.788 333.187,437.873 331.493,437.826 331.499,437.489 331.368,437.447 324.052,437.345 324.101,435.542 325.612,435.526 325.626,434.755 325.741,434.717 328.096,434.731 327.651,434.519 322.494,434.561 329.941,434.391 325.498,434.210 323.809,433.964 323.725,430.102 323.725,429.951 323.713,429.643 321.430,429.609 321.292,428.817 320.741,428.234 320.006,427.919 318.970,427.818 318.532,427.539 318.453,427.433 318.321,426.657 318.939,426.663 318.969,425.720 318.342,425.705 318.463,423.270 318.550,421.867 318.620,412.758 319.337,412.101 320.620,412.332 321.478,412.115 321.736,411.794 321.847,411.366 321.557,410.388 325.657,410.524 326.012,410.842 326.477,410.953 326.996,410.794 327.350,410.381 327.426,409.843 327.072,409.222 327.082,408.237 326.876,408.226 326.631,408.700 326.395,408.664 325.992,408.252 325.811,407.654 326.339,405.546 327.116,405.140 327.173,403.002 326.253,402.862 326.753,395.534 324.684,395.328 324.198,395.561 323.939,395.979 324.390,399.365 323.897,400.295 323.925,401.390 323.431,402.097 323.522,402.745 323.439,403.041 323.267,403.124 323.259,403.618 323.529,403.838 323.515,404.447 323.897,405.240 324.133,406.681 323.836,408.045 323.424,408.803 323.394,409.409 321.577,409.377 321.596,408.751 321.102,407.486 320.940,406.233 321.237,405.171 321.689,404.413 321.702,403.804 321.990,403.594 321.989,403.401 321.834,403.332 304.255,402.965 304.277,413.765 304.070,421.526 304.004,424.183 304.008,424.343 303.937,427.185 303.866,429.988 303.789,433.385 308.742,433.389 308.407,449.893 308.148,450.789 313.103,450.893 313.710,449.912 313.763,449.553 315.616,448.863 316.119,448.243 320.324,440.135 z M 309.225,433.511 308.873,433.389 309.063,433.390 309.225,433.511 z" class="polygon zipcodes" id="12311" fill_rule="evenodd"/>
            <polygon points="304.070,421.526 304.277,413.765 304.255,402.965 293.346,402.667 293.136,410.711 276.977,410.321 276.314,434.744 292.485,435.028 298.800,435.052 301.298,435.156 301.399,434.504 302.240,433.246 303.789,433.385 304.070,421.526" id="6761" class="zipcodes"/>
            <polygon points="292.317,443.190 291.814,459.316 311.394,459.765 311.368,459.262 311.089,458.809 311.007,458.283 311.296,455.631 312.339,451.803 312.214,451.772 313.103,450.893 308.148,450.789 308.407,449.893 308.535,443.568 308.743,433.345 303.952,433.392 302.240,433.246 301.399,434.504 301.298,435.156 292.485,435.028 292.317,443.190" id="60610" class="zipcodes"/>
            <polygon points="276.314,434.744 268.200,434.567 267.998,442.553 243.516,442.067 243.125,458.240 267.495,458.725 267.594,458.846 267.435,466.816 275.448,467.040 275.938,467.028 277.704,467.577 278.366,466.632 278.988,464.501 279.550,464.342 281.121,465.113 283.186,463.489 283.844,462.493 284.688,459.137 291.814,459.316 292.485,435.028 276.314,434.744" id="60622" class="zipcodes"/>
        </g>
    </g>
</svg>